<svg width="208" height="101" viewBox="0 0 208 101" fill="none" xmlns="http://www.w3.org/2000/svg">
<g id="logo">
<g id="Oficina Nacional de Procesos Electorales">
<path d="M4.67104 94.4591C4.01744 94.4591 3.41439 94.3083 2.86186 94.0067C2.31608 93.6984 1.88147 93.2727 1.55804 92.7298C1.24135 92.1802 1.08301 91.5635 1.08301 90.8798C1.08301 90.1962 1.24135 89.5829 1.55804 89.0399C1.88147 88.497 2.31608 88.0747 2.86186 87.7731C3.41439 87.4648 4.01744 87.3106 4.67104 87.3106C5.33137 87.3106 5.93443 87.4648 6.48021 87.7731C7.03274 88.0747 7.46734 88.497 7.78403 89.0399C8.10072 89.5829 8.25907 90.1962 8.25907 90.8798C8.25907 91.5635 8.10072 92.1802 7.78403 92.7298C7.46734 93.2727 7.03274 93.6984 6.48021 94.0067C5.93443 94.3083 5.33137 94.4591 4.67104 94.4591ZM4.67104 93.4638C5.13597 93.4638 5.55036 93.3599 5.91422 93.1521C6.27807 92.9376 6.56107 92.636 6.76321 92.2472C6.9721 91.8517 7.07654 91.396 7.07654 90.8798C7.07654 90.3637 6.9721 89.9113 6.76321 89.5225C6.56107 89.1338 6.27807 88.8355 5.91422 88.6277C5.55036 88.4199 5.13597 88.316 4.67104 88.316C4.20611 88.316 3.79172 88.4199 3.42786 88.6277C3.06401 88.8355 2.77764 89.1338 2.56876 89.5225C2.36661 89.9113 2.26554 90.3637 2.26554 90.8798C2.26554 91.396 2.36661 91.8517 2.56876 92.2472C2.77764 92.636 3.06401 92.9376 3.42786 93.1521C3.79172 93.3599 4.20611 93.4638 4.67104 93.4638Z" fill="#173C6C"/>
<path d="M11.7276 89.7839H10.6967V94.3887H9.53438V89.7839H8.87742V88.8489H9.53438V88.4568C9.53438 87.82 9.70284 87.3576 10.0397 87.0693C10.3834 86.7744 10.9191 86.627 11.6468 86.627V87.5821C11.2964 87.5821 11.0505 87.6491 10.909 87.7832C10.7675 87.9105 10.6967 88.1351 10.6967 88.4568V88.8489H11.7276V89.7839Z" fill="#173C6C"/>
<path d="M13.335 88.115C13.1261 88.115 12.9509 88.0446 12.8094 87.9038C12.6679 87.7631 12.5972 87.5888 12.5972 87.381C12.5972 87.1732 12.6679 86.999 12.8094 86.8582C12.9509 86.7174 13.1261 86.6471 13.335 86.6471C13.5371 86.6471 13.7089 86.7174 13.8504 86.8582C13.9919 86.999 14.0627 87.1732 14.0627 87.381C14.0627 87.5888 13.9919 87.7631 13.8504 87.9038C13.7089 88.0446 13.5371 88.115 13.335 88.115ZM13.901 88.8489V94.3887H12.7488V88.8489H13.901Z" fill="#173C6C"/>
<path d="M15.0297 91.6138C15.0297 91.0441 15.1442 90.5447 15.3733 90.1157C15.6091 89.6801 15.9326 89.3449 16.3436 89.1103C16.7546 88.8757 17.2263 88.7584 17.7586 88.7584C18.4324 88.7584 18.9883 88.9193 19.4263 89.241C19.871 89.5561 20.1708 90.0085 20.3258 90.5983H19.0826C18.9815 90.3235 18.8198 90.109 18.5975 89.9549C18.3751 89.8007 18.0955 89.7236 17.7586 89.7236C17.2869 89.7236 16.9096 89.8912 16.6266 90.2263C16.3503 90.5548 16.2122 91.0173 16.2122 91.6138C16.2122 92.2103 16.3503 92.6762 16.6266 93.0113C16.9096 93.3465 17.2869 93.514 17.7586 93.514C18.4257 93.514 18.867 93.2225 19.0826 92.6393H20.3258C20.1641 93.2024 19.8609 93.6514 19.4162 93.9866C18.9714 94.315 18.4189 94.4792 17.7586 94.4792C17.2263 94.4792 16.7546 94.3619 16.3436 94.1273C15.9326 93.886 15.6091 93.5509 15.3733 93.1219C15.1442 92.6862 15.0297 92.1835 15.0297 91.6138Z" fill="#173C6C"/>
<path d="M22.0603 88.115C21.8514 88.115 21.6762 88.0446 21.5347 87.9038C21.3932 87.7631 21.3225 87.5888 21.3225 87.381C21.3225 87.1732 21.3932 86.999 21.5347 86.8582C21.6762 86.7174 21.8514 86.6471 22.0603 86.6471C22.2624 86.6471 22.4342 86.7174 22.5757 86.8582C22.7172 86.999 22.788 87.1732 22.788 87.381C22.788 87.5888 22.7172 87.7631 22.5757 87.9038C22.4342 88.0446 22.2624 88.115 22.0603 88.115ZM22.6263 88.8489V94.3887H21.4741V88.8489H22.6263Z" fill="#173C6C"/>
<path d="M26.9488 88.7584C27.3868 88.7584 27.7776 88.8489 28.1212 89.0299C28.4716 89.2109 28.7445 89.479 28.9399 89.8342C29.1353 90.1895 29.233 90.6184 29.233 91.1211V94.3887H28.0909V91.2921C28.0909 90.7961 27.9663 90.4174 27.7169 90.156C27.4676 89.8878 27.1274 89.7538 26.6961 89.7538C26.2649 89.7538 25.9212 89.8878 25.6652 90.156C25.4159 90.4174 25.2912 90.7961 25.2912 91.2921V94.3887H24.139V88.8489H25.2912V89.4823C25.4799 89.2544 25.7191 89.0768 26.0088 88.9495C26.3053 88.8221 26.6186 88.7584 26.9488 88.7584Z" fill="#173C6C"/>
<path d="M30.3187 91.5937C30.3187 91.0374 30.4332 90.5447 30.6623 90.1157C30.8981 89.6868 31.2148 89.355 31.6124 89.1204C32.0167 88.8791 32.4614 88.7584 32.9465 88.7584C33.3845 88.7584 33.7652 88.8456 34.0886 89.0198C34.4188 89.1874 34.6816 89.3985 34.877 89.6532V88.8489H36.0393V94.3887H34.877V93.5643C34.6816 93.8257 34.4154 94.0435 34.0785 94.2178C33.7416 94.3921 33.3575 94.4792 32.9263 94.4792C32.4479 94.4792 32.0099 94.3586 31.6124 94.1173C31.2148 93.8693 30.8981 93.5274 30.6623 93.0918C30.4332 92.6494 30.3187 92.15 30.3187 91.5937ZM34.877 91.6138C34.877 91.2317 34.7961 90.9 34.6344 90.6184C34.4794 90.3369 34.2739 90.1224 34.0179 89.975C33.7618 89.8275 33.4856 89.7538 33.1891 89.7538C32.8926 89.7538 32.6164 89.8275 32.3603 89.975C32.1043 90.1157 31.8954 90.3269 31.7337 90.6084C31.5787 90.8832 31.5012 91.2116 31.5012 91.5937C31.5012 91.9757 31.5787 92.3109 31.7337 92.5991C31.8954 92.8873 32.1043 93.1085 32.3603 93.2627C32.6231 93.4101 32.8994 93.4839 33.1891 93.4839C33.4856 93.4839 33.7618 93.4101 34.0179 93.2627C34.2739 93.1152 34.4794 92.9007 34.6344 92.6192C34.7961 92.331 34.877 91.9959 34.877 91.6138Z" fill="#173C6C"/>
<path d="M45.9493 94.3887H44.7971L41.3304 89.1706V94.3887H40.1782V87.3911H41.3304L44.7971 92.5991V87.3911H45.9493V94.3887Z" fill="#173C6C"/>
<path d="M47.0783 91.5937C47.0783 91.0374 47.1929 90.5447 47.422 90.1157C47.6578 89.6868 47.9745 89.355 48.372 89.1204C48.7763 88.8791 49.2211 88.7584 49.7062 88.7584C50.1442 88.7584 50.5249 88.8456 50.8483 89.0198C51.1785 89.1874 51.4412 89.3985 51.6367 89.6532V88.8489H52.799V94.3887H51.6367V93.5643C51.4412 93.8257 51.1751 94.0435 50.8382 94.2178C50.5013 94.3921 50.1172 94.4792 49.686 94.4792C49.2076 94.4792 48.7696 94.3586 48.372 94.1173C47.9745 93.8693 47.6578 93.5274 47.422 93.0918C47.1929 92.6494 47.0783 92.15 47.0783 91.5937ZM51.6367 91.6138C51.6367 91.2317 51.5558 90.9 51.3941 90.6184C51.2391 90.3369 51.0336 90.1224 50.7775 89.975C50.5215 89.8275 50.2452 89.7538 49.9488 89.7538C49.6523 89.7538 49.376 89.8275 49.12 89.975C48.8639 90.1157 48.6551 90.3269 48.4933 90.6084C48.3384 90.8832 48.2609 91.2116 48.2609 91.5937C48.2609 91.9757 48.3384 92.3109 48.4933 92.5991C48.6551 92.8873 48.8639 93.1085 49.12 93.2627C49.3828 93.4101 49.659 93.4839 49.9488 93.4839C50.2452 93.4839 50.5215 93.4101 50.7775 93.2627C51.0336 93.1152 51.2391 92.9007 51.3941 92.6192C51.5558 92.331 51.6367 91.9959 51.6367 91.6138Z" fill="#173C6C"/>
<path d="M53.9283 91.6138C53.9283 91.0441 54.0428 90.5447 54.2719 90.1157C54.5078 89.6801 54.8312 89.3449 55.2422 89.1103C55.6532 88.8757 56.1249 88.7584 56.6572 88.7584C57.331 88.7584 57.8869 88.9193 58.3249 89.241C58.7696 89.5561 59.0694 90.0085 59.2244 90.5983H57.9812C57.8802 90.3235 57.7185 90.109 57.4961 89.9549C57.2737 89.8007 56.9941 89.7236 56.6572 89.7236C56.1855 89.7236 55.8082 89.8912 55.5252 90.2263C55.249 90.5548 55.1108 91.0173 55.1108 91.6138C55.1108 92.2103 55.249 92.6762 55.5252 93.0113C55.8082 93.3465 56.1855 93.514 56.6572 93.514C57.3243 93.514 57.7656 93.2225 57.9812 92.6393H59.2244C59.0627 93.2024 58.7595 93.6514 58.3148 93.9866C57.8701 94.315 57.3175 94.4792 56.6572 94.4792C56.1249 94.4792 55.6532 94.3619 55.2422 94.1273C54.8312 93.886 54.5078 93.5509 54.2719 93.1219C54.0428 92.6862 53.9283 92.1835 53.9283 91.6138Z" fill="#173C6C"/>
<path d="M60.9589 88.115C60.75 88.115 60.5748 88.0446 60.4333 87.9038C60.2918 87.7631 60.2211 87.5888 60.2211 87.381C60.2211 87.1732 60.2918 86.999 60.4333 86.8582C60.5748 86.7174 60.75 86.6471 60.9589 86.6471C61.161 86.6471 61.3329 86.7174 61.4744 86.8582C61.6159 86.999 61.6866 87.1732 61.6866 87.381C61.6866 87.5888 61.6159 87.7631 61.4744 87.9038C61.3329 88.0446 61.161 88.115 60.9589 88.115ZM61.5249 88.8489V94.3887H60.3727V88.8489H61.5249Z" fill="#173C6C"/>
<path d="M65.4533 94.4792C64.9277 94.4792 64.4526 94.3619 64.0281 94.1273C63.6036 93.886 63.2701 93.5509 63.0275 93.1219C62.785 92.6862 62.6637 92.1835 62.6637 91.6138C62.6637 91.0508 62.7883 90.5514 63.0377 90.1157C63.287 89.6801 63.6272 89.3449 64.0585 89.1103C64.4897 88.8757 64.9715 88.7584 65.5038 88.7584C66.0361 88.7584 66.5179 88.8757 66.9491 89.1103C67.3803 89.3449 67.7206 89.6801 67.9699 90.1157C68.2192 90.5514 68.3439 91.0508 68.3439 91.6138C68.3439 92.1768 68.2159 92.6762 67.9598 93.1119C67.7038 93.5475 67.3534 93.886 66.9087 94.1273C66.4707 94.3619 65.9856 94.4792 65.4533 94.4792ZM65.4533 93.4839C65.7497 93.4839 66.026 93.4135 66.282 93.2727C66.5448 93.132 66.7571 92.9208 66.9188 92.6393C67.0805 92.3578 67.1614 92.016 67.1614 91.6138C67.1614 91.2116 67.0839 90.8731 66.9289 90.5983C66.7739 90.3168 66.5684 90.1057 66.3124 89.9649C66.0563 89.8242 65.7801 89.7538 65.4836 89.7538C65.1871 89.7538 64.9108 89.8242 64.6548 89.9649C64.4055 90.1057 64.2067 90.3168 64.0585 90.5983C63.9102 90.8731 63.8361 91.2116 63.8361 91.6138C63.8361 92.2103 63.9877 92.6728 64.2909 93.0013C64.6009 93.323 64.9883 93.4839 65.4533 93.4839Z" fill="#173C6C"/>
<path d="M72.2927 88.7584C72.7307 88.7584 73.1215 88.8489 73.4651 89.0299C73.8155 89.2109 74.0884 89.479 74.2838 89.8342C74.4792 90.1895 74.5769 90.6184 74.5769 91.1211V94.3887H73.4348V91.2921C73.4348 90.7961 73.3102 90.4174 73.0608 90.156C72.8115 89.8878 72.4713 89.7538 72.04 89.7538C71.6088 89.7538 71.2651 89.8878 71.0091 90.156C70.7598 90.4174 70.6351 90.7961 70.6351 91.2921V94.3887H69.4829V88.8489H70.6351V89.4823C70.8238 89.2544 71.063 89.0768 71.3527 88.9495C71.6492 88.8221 71.9625 88.7584 72.2927 88.7584Z" fill="#173C6C"/>
<path d="M75.6626 91.5937C75.6626 91.0374 75.7771 90.5447 76.0062 90.1157C76.242 89.6868 76.5587 89.355 76.9563 89.1204C77.3606 88.8791 77.8053 88.7584 78.2904 88.7584C78.7284 88.7584 79.1091 88.8456 79.4325 89.0198C79.7627 89.1874 80.0255 89.3985 80.2209 89.6532V88.8489H81.3832V94.3887H80.2209V93.5643C80.0255 93.8257 79.7593 94.0435 79.4224 94.2178C79.0855 94.3921 78.7014 94.4792 78.2702 94.4792C77.7918 94.4792 77.3538 94.3586 76.9563 94.1173C76.5587 93.8693 76.242 93.5274 76.0062 93.0918C75.7771 92.6494 75.6626 92.15 75.6626 91.5937ZM80.2209 91.6138C80.2209 91.2317 80.14 90.9 79.9783 90.6184C79.8233 90.3369 79.6178 90.1224 79.3618 89.975C79.1057 89.8275 78.8295 89.7538 78.533 89.7538C78.2365 89.7538 77.9602 89.8275 77.7042 89.975C77.4482 90.1157 77.2393 90.3269 77.0776 90.6084C76.9226 90.8832 76.8451 91.2116 76.8451 91.5937C76.8451 91.9757 76.9226 92.3109 77.0776 92.5991C77.2393 92.8873 77.4482 93.1085 77.7042 93.2627C77.967 93.4101 78.2432 93.4839 78.533 93.4839C78.8295 93.4839 79.1057 93.4101 79.3618 93.2627C79.6178 93.1152 79.8233 92.9007 79.9783 92.6192C80.14 92.331 80.2209 91.9959 80.2209 91.6138Z" fill="#173C6C"/>
<path d="M84.0488 86.9487V94.3887H82.8966V86.9487H84.0488Z" fill="#173C6C"/>
<path d="M87.803 91.5937C87.803 91.0374 87.9175 90.5447 88.1466 90.1157C88.3824 89.6868 88.6991 89.355 89.0967 89.1204C89.501 88.8791 89.949 88.7584 90.4409 88.7584C90.8048 88.7584 91.1619 88.8389 91.5123 88.9997C91.8694 89.1539 92.1524 89.3617 92.3613 89.6231V86.9487H93.5236V94.3887H92.3613V93.5542C92.1726 93.8224 91.9098 94.0435 91.5729 94.2178C91.2428 94.3921 90.862 94.4792 90.4308 94.4792C89.9457 94.4792 89.501 94.3586 89.0967 94.1173C88.6991 93.8693 88.3824 93.5274 88.1466 93.0918C87.9175 92.6494 87.803 92.15 87.803 91.5937ZM92.3613 91.6138C92.3613 91.2317 92.2804 90.9 92.1187 90.6184C91.9637 90.3369 91.7582 90.1224 91.5022 89.975C91.2461 89.8275 90.9699 89.7538 90.6734 89.7538C90.3769 89.7538 90.1006 89.8275 89.8446 89.975C89.5885 90.1157 89.3797 90.3269 89.2179 90.6084C89.063 90.8832 88.9855 91.2116 88.9855 91.5937C88.9855 91.9757 89.063 92.3109 89.2179 92.5991C89.3797 92.8873 89.5885 93.1085 89.8446 93.2627C90.1074 93.4101 90.3836 93.4839 90.6734 93.4839C90.9699 93.4839 91.2461 93.4101 91.5022 93.2627C91.7582 93.1152 91.9637 92.9007 92.1187 92.6192C92.2804 92.331 92.3613 91.9959 92.3613 91.6138Z" fill="#173C6C"/>
<path d="M100.141 91.4831C100.141 91.6909 100.128 91.8786 100.101 92.0461H95.8455C95.8792 92.4885 96.0443 92.8438 96.3408 93.1119C96.6373 93.38 97.0011 93.514 97.4324 93.514C98.0523 93.514 98.4902 93.256 98.7463 92.7399H99.9895C99.821 93.2493 99.5144 93.6682 99.0697 93.9966C98.6317 94.3184 98.086 94.4792 97.4324 94.4792C96.9001 94.4792 96.4216 94.3619 95.9971 94.1273C95.5794 93.886 95.2492 93.5509 95.0067 93.1219C94.7708 92.6862 94.6529 92.1835 94.6529 91.6138C94.6529 91.0441 94.7674 90.5447 94.9965 90.1157C95.2324 89.6801 95.5592 89.3449 95.9769 89.1103C96.4014 88.8757 96.8866 88.7584 97.4324 88.7584C97.9579 88.7584 98.4262 88.8724 98.8372 89.1003C99.2483 89.3282 99.5683 89.6499 99.7974 90.0655C100.027 90.4743 100.141 90.9469 100.141 91.4831ZM98.9383 91.1211C98.9316 90.6989 98.78 90.3604 98.4835 90.1057C98.187 89.851 97.8198 89.7236 97.3818 89.7236C96.9843 89.7236 96.644 89.851 96.361 90.1057C96.078 90.3537 95.9096 90.6922 95.8556 91.1211H98.9383Z" fill="#173C6C"/>
<path d="M108.813 89.4823C108.813 89.8376 108.728 90.1727 108.56 90.4877C108.391 90.8028 108.122 91.0608 107.751 91.2619C107.381 91.4563 106.906 91.5535 106.326 91.5535H105.053V94.3887H103.9V87.4011H106.326C106.865 87.4011 107.32 87.495 107.691 87.6826C108.068 87.8636 108.348 88.1116 108.53 88.4266C108.718 88.7417 108.813 89.0936 108.813 89.4823ZM106.326 90.6184C106.764 90.6184 107.091 90.5213 107.307 90.3269C107.522 90.1258 107.63 89.8443 107.63 89.4823C107.63 88.7182 107.195 88.3362 106.326 88.3362H105.053V90.6184H106.326Z" fill="#173C6C"/>
<path d="M111.064 89.6532C111.232 89.3717 111.454 89.1539 111.731 88.9997C112.014 88.8389 112.347 88.7584 112.731 88.7584V89.9448H112.438C111.987 89.9448 111.643 90.0588 111.407 90.2867C111.178 90.5145 111.064 90.91 111.064 91.473V94.3887H109.911V88.8489H111.064V89.6532Z" fill="#173C6C"/>
<path d="M116.206 94.4792C115.68 94.4792 115.205 94.3619 114.781 94.1273C114.356 93.886 114.023 93.5509 113.78 93.1219C113.538 92.6862 113.416 92.1835 113.416 91.6138C113.416 91.0508 113.541 90.5514 113.79 90.1157C114.04 89.6801 114.38 89.3449 114.811 89.1103C115.243 88.8757 115.724 88.7584 116.257 88.7584C116.789 88.7584 117.271 88.8757 117.702 89.1103C118.133 89.3449 118.473 89.6801 118.723 90.1157C118.972 90.5514 119.097 91.0508 119.097 91.6138C119.097 92.1768 118.969 92.6762 118.713 93.1119C118.457 93.5475 118.106 93.886 117.661 94.1273C117.223 94.3619 116.738 94.4792 116.206 94.4792ZM116.206 93.4839C116.503 93.4839 116.779 93.4135 117.035 93.2727C117.298 93.132 117.51 92.9208 117.672 92.6393C117.833 92.3578 117.914 92.016 117.914 91.6138C117.914 91.2116 117.837 90.8731 117.682 90.5983C117.527 90.3168 117.321 90.1057 117.065 89.9649C116.809 89.8242 116.533 89.7538 116.236 89.7538C115.94 89.7538 115.664 89.8242 115.408 89.9649C115.158 90.1057 114.959 90.3168 114.811 90.5983C114.663 90.8731 114.589 91.2116 114.589 91.6138C114.589 92.2103 114.741 92.6728 115.044 93.0013C115.354 93.323 115.741 93.4839 116.206 93.4839Z" fill="#173C6C"/>
<path d="M119.852 91.6138C119.852 91.0441 119.966 90.5447 120.195 90.1157C120.431 89.6801 120.755 89.3449 121.166 89.1103C121.577 88.8757 122.048 88.7584 122.581 88.7584C123.254 88.7584 123.81 88.9193 124.248 89.241C124.693 89.5561 124.993 90.0085 125.148 90.5983H123.905C123.804 90.3235 123.642 90.109 123.419 89.9549C123.197 89.8007 122.917 89.7236 122.581 89.7236C122.109 89.7236 121.732 89.8912 121.449 90.2263C121.172 90.5548 121.034 91.0173 121.034 91.6138C121.034 92.2103 121.172 92.6762 121.449 93.0113C121.732 93.3465 122.109 93.514 122.581 93.514C123.248 93.514 123.689 93.2225 123.905 92.6393H125.148C124.986 93.2024 124.683 93.6514 124.238 93.9866C123.793 94.315 123.241 94.4792 122.581 94.4792C122.048 94.4792 121.577 94.3619 121.166 94.1273C120.755 93.886 120.431 93.5509 120.195 93.1219C119.966 92.6862 119.852 92.1835 119.852 91.6138Z" fill="#173C6C"/>
<path d="M131.4 91.4831C131.4 91.6909 131.387 91.8786 131.36 92.0461H127.105C127.138 92.4885 127.303 92.8438 127.6 93.1119C127.896 93.38 128.26 93.514 128.691 93.514C129.311 93.514 129.749 93.256 130.005 92.7399H131.249C131.08 93.2493 130.773 93.6682 130.329 93.9966C129.891 94.3184 129.345 94.4792 128.691 94.4792C128.159 94.4792 127.681 94.3619 127.256 94.1273C126.838 93.886 126.508 93.5509 126.266 93.1219C126.03 92.6862 125.912 92.1835 125.912 91.6138C125.912 91.0441 126.027 90.5447 126.256 90.1157C126.491 89.6801 126.818 89.3449 127.236 89.1103C127.66 88.8757 128.146 88.7584 128.691 88.7584C129.217 88.7584 129.685 88.8724 130.096 89.1003C130.507 89.3282 130.827 89.6499 131.057 90.0655C131.286 90.4743 131.4 90.9469 131.4 91.4831ZM130.197 91.1211C130.191 90.6989 130.039 90.3604 129.743 90.1057C129.446 89.851 129.079 89.7236 128.641 89.7236C128.243 89.7236 127.903 89.851 127.62 90.1057C127.337 90.3537 127.169 90.6922 127.115 91.1211H130.197Z" fill="#173C6C"/>
<path d="M134.555 94.4792C134.117 94.4792 133.723 94.4021 133.373 94.248C133.029 94.0871 132.756 93.8726 132.554 93.6045C132.352 93.3297 132.244 93.0247 132.231 92.6896H133.423C133.444 92.9242 133.555 93.1219 133.757 93.2828C133.966 93.4369 134.225 93.514 134.535 93.514C134.859 93.514 135.108 93.4537 135.283 93.3331C135.465 93.2057 135.556 93.0448 135.556 92.8505C135.556 92.6427 135.455 92.4885 135.253 92.388C135.057 92.2874 134.744 92.1768 134.313 92.0562C133.895 91.9422 133.555 91.8316 133.292 91.7244C133.029 91.6172 132.8 91.4529 132.605 91.2317C132.416 91.0106 132.322 90.719 132.322 90.357C132.322 90.0621 132.409 89.794 132.585 89.5527C132.76 89.3047 133.009 89.1103 133.332 88.9696C133.663 88.8288 134.04 88.7584 134.464 88.7584C135.098 88.7584 135.607 88.9193 135.991 89.241C136.381 89.5561 136.59 89.9884 136.617 90.538H135.465C135.445 90.29 135.344 90.0923 135.162 89.9448C134.98 89.7974 134.734 89.7236 134.424 89.7236C134.121 89.7236 133.888 89.7806 133.727 89.8945C133.565 90.0085 133.484 90.1593 133.484 90.347C133.484 90.4944 133.538 90.6184 133.646 90.719C133.754 90.8195 133.885 90.9 134.04 90.9603C134.195 91.0139 134.424 91.0843 134.727 91.1714C135.132 91.2787 135.462 91.3893 135.718 91.5032C135.981 91.6104 136.206 91.7713 136.395 91.9858C136.584 92.2003 136.681 92.4852 136.688 92.8404C136.688 93.1554 136.6 93.4369 136.425 93.6849C136.25 93.933 136.001 94.1273 135.677 94.2681C135.361 94.4088 134.987 94.4792 134.555 94.4792Z" fill="#173C6C"/>
<path d="M140.349 94.4792C139.823 94.4792 139.348 94.3619 138.924 94.1273C138.499 93.886 138.166 93.5509 137.923 93.1219C137.68 92.6862 137.559 92.1835 137.559 91.6138C137.559 91.0508 137.684 90.5514 137.933 90.1157C138.182 89.6801 138.523 89.3449 138.954 89.1103C139.385 88.8757 139.867 88.7584 140.399 88.7584C140.931 88.7584 141.413 88.8757 141.844 89.1103C142.276 89.3449 142.616 89.6801 142.865 90.1157C143.115 90.5514 143.239 91.0508 143.239 91.6138C143.239 92.1768 143.111 92.6762 142.855 93.1119C142.599 93.5475 142.249 93.886 141.804 94.1273C141.366 94.3619 140.881 94.4792 140.349 94.4792ZM140.349 93.4839C140.645 93.4839 140.921 93.4135 141.177 93.2727C141.44 93.132 141.652 92.9208 141.814 92.6393C141.976 92.3578 142.057 92.016 142.057 91.6138C142.057 91.2116 141.979 90.8731 141.824 90.5983C141.669 90.3168 141.464 90.1057 141.208 89.9649C140.952 89.8242 140.675 89.7538 140.379 89.7538C140.082 89.7538 139.806 89.8242 139.55 89.9649C139.301 90.1057 139.102 90.3168 138.954 90.5983C138.806 90.8731 138.732 91.2116 138.732 91.6138C138.732 92.2103 138.883 92.6728 139.186 93.0013C139.496 93.323 139.884 93.4839 140.349 93.4839Z" fill="#173C6C"/>
<path d="M146.4 94.4792C145.962 94.4792 145.568 94.4021 145.217 94.248C144.874 94.0871 144.601 93.8726 144.399 93.6045C144.196 93.3297 144.089 93.0247 144.075 92.6896H145.268C145.288 92.9242 145.399 93.1219 145.601 93.2828C145.81 93.4369 146.07 93.514 146.38 93.514C146.703 93.514 146.952 93.4537 147.127 93.3331C147.309 93.2057 147.4 93.0448 147.4 92.8505C147.4 92.6427 147.299 92.4885 147.097 92.388C146.902 92.2874 146.588 92.1768 146.157 92.0562C145.739 91.9422 145.399 91.8316 145.136 91.7244C144.874 91.6172 144.644 91.4529 144.449 91.2317C144.26 91.0106 144.166 90.719 144.166 90.357C144.166 90.0621 144.254 89.794 144.429 89.5527C144.604 89.3047 144.853 89.1103 145.177 88.9696C145.507 88.8288 145.884 88.7584 146.309 88.7584C146.942 88.7584 147.451 88.9193 147.835 89.241C148.226 89.5561 148.435 89.9884 148.462 90.538H147.309C147.289 90.29 147.188 90.0923 147.006 89.9448C146.824 89.7974 146.578 89.7236 146.268 89.7236C145.965 89.7236 145.733 89.7806 145.571 89.8945C145.409 90.0085 145.328 90.1593 145.328 90.347C145.328 90.4944 145.382 90.6184 145.49 90.719C145.598 90.8195 145.729 90.9 145.884 90.9603C146.039 91.0139 146.268 91.0843 146.572 91.1714C146.976 91.2787 147.306 91.3893 147.562 91.5032C147.825 91.6104 148.051 91.7713 148.239 91.9858C148.428 92.2003 148.526 92.4852 148.532 92.8404C148.532 93.1554 148.445 93.4369 148.27 93.6849C148.094 93.933 147.845 94.1273 147.522 94.2681C147.205 94.4088 146.831 94.4792 146.4 94.4792Z" fill="#173C6C"/>
<path d="M153.555 88.3261V90.3771H155.981V91.3122H153.555V93.4537H156.284V94.3887H152.403V87.3911H156.284V88.3261H153.555Z" fill="#173C6C"/>
<path d="M158.855 86.9487V94.3887H157.703V86.9487H158.855Z" fill="#173C6C"/>
<path d="M165.472 91.4831C165.472 91.6909 165.459 91.8786 165.432 92.0461H161.177C161.21 92.4885 161.375 92.8438 161.672 93.1119C161.968 93.38 162.332 93.514 162.763 93.514C163.383 93.514 163.821 93.256 164.077 92.7399H165.321C165.152 93.2493 164.846 93.6682 164.401 93.9966C163.963 94.3184 163.417 94.4792 162.763 94.4792C162.231 94.4792 161.753 94.3619 161.328 94.1273C160.911 93.886 160.58 93.5509 160.338 93.1219C160.102 92.6862 159.984 92.1835 159.984 91.6138C159.984 91.0441 160.099 90.5447 160.328 90.1157C160.564 89.6801 160.89 89.3449 161.308 89.1103C161.733 88.8757 162.218 88.7584 162.763 88.7584C163.289 88.7584 163.757 88.8724 164.168 89.1003C164.579 89.3282 164.899 89.6499 165.129 90.0655C165.358 90.4743 165.472 90.9469 165.472 91.4831ZM164.269 91.1211C164.263 90.6989 164.111 90.3604 163.815 90.1057C163.518 89.851 163.151 89.7236 162.713 89.7236C162.315 89.7236 161.975 89.851 161.692 90.1057C161.409 90.3537 161.241 90.6922 161.187 91.1211H164.269Z" fill="#173C6C"/>
<path d="M166.222 91.6138C166.222 91.0441 166.337 90.5447 166.566 90.1157C166.801 89.6801 167.125 89.3449 167.536 89.1103C167.947 88.8757 168.419 88.7584 168.951 88.7584C169.625 88.7584 170.181 88.9193 170.619 89.241C171.063 89.5561 171.363 90.0085 171.518 90.5983H170.275C170.174 90.3235 170.012 90.109 169.79 89.9549C169.567 89.8007 169.288 89.7236 168.951 89.7236C168.479 89.7236 168.102 89.8912 167.819 90.2263C167.543 90.5548 167.405 91.0173 167.405 91.6138C167.405 92.2103 167.543 92.6762 167.819 93.0113C168.102 93.3465 168.479 93.514 168.951 93.514C169.618 93.514 170.059 93.2225 170.275 92.6393H171.518C171.356 93.2024 171.053 93.6514 170.609 93.9866C170.164 94.315 169.611 94.4792 168.951 94.4792C168.419 94.4792 167.947 94.3619 167.536 94.1273C167.125 93.886 166.801 93.5509 166.566 93.1219C166.337 92.6862 166.222 92.1835 166.222 91.6138Z" fill="#173C6C"/>
<path d="M174.011 89.7839V92.8505C174.011 93.0582 174.058 93.2091 174.152 93.3029C174.253 93.39 174.422 93.4336 174.658 93.4336H175.365V94.3887H174.455C173.937 94.3887 173.539 94.2681 173.263 94.0268C172.986 93.7855 172.848 93.3934 172.848 92.8505V89.7839H172.191V88.8489H172.848V87.4715H174.011V88.8489H175.365V89.7839H174.011Z" fill="#173C6C"/>
<path d="M178.843 94.4792C178.317 94.4792 177.842 94.3619 177.417 94.1273C176.993 93.886 176.659 93.5509 176.417 93.1219C176.174 92.6862 176.053 92.1835 176.053 91.6138C176.053 91.0508 176.178 90.5514 176.427 90.1157C176.676 89.6801 177.017 89.3449 177.448 89.1103C177.879 88.8757 178.361 88.7584 178.893 88.7584C179.425 88.7584 179.907 88.8757 180.338 89.1103C180.77 89.3449 181.11 89.6801 181.359 90.1157C181.609 90.5514 181.733 91.0508 181.733 91.6138C181.733 92.1768 181.605 92.6762 181.349 93.1119C181.093 93.5475 180.743 93.886 180.298 94.1273C179.86 94.3619 179.375 94.4792 178.843 94.4792ZM178.843 93.4839C179.139 93.4839 179.415 93.4135 179.671 93.2727C179.934 93.132 180.146 92.9208 180.308 92.6393C180.47 92.3578 180.551 92.016 180.551 91.6138C180.551 91.2116 180.473 90.8731 180.318 90.5983C180.163 90.3168 179.958 90.1057 179.702 89.9649C179.446 89.8242 179.169 89.7538 178.873 89.7538C178.576 89.7538 178.3 89.8242 178.044 89.9649C177.795 90.1057 177.596 90.3168 177.448 90.5983C177.3 90.8731 177.225 91.2116 177.225 91.6138C177.225 92.2103 177.377 92.6728 177.68 93.0013C177.99 93.323 178.378 93.4839 178.843 93.4839Z" fill="#173C6C"/>
<path d="M184.024 89.6532C184.193 89.3717 184.415 89.1539 184.692 88.9997C184.975 88.8389 185.308 88.7584 185.692 88.7584V89.9448H185.399C184.948 89.9448 184.604 90.0588 184.368 90.2867C184.139 90.5145 184.024 90.91 184.024 91.473V94.3887H182.872V88.8489H184.024V89.6532Z" fill="#173C6C"/>
<path d="M186.367 91.5937C186.367 91.0374 186.482 90.5447 186.711 90.1157C186.947 89.6868 187.263 89.355 187.661 89.1204C188.065 88.8791 188.51 88.7584 188.995 88.7584C189.433 88.7584 189.814 88.8456 190.137 89.0198C190.467 89.1874 190.73 89.3985 190.926 89.6532V88.8489H192.088V94.3887H190.926V93.5643C190.73 93.8257 190.464 94.0435 190.127 94.2178C189.79 94.3921 189.406 94.4792 188.975 94.4792C188.496 94.4792 188.058 94.3586 187.661 94.1173C187.263 93.8693 186.947 93.5274 186.711 93.0918C186.482 92.6494 186.367 92.15 186.367 91.5937ZM190.926 91.6138C190.926 91.2317 190.845 90.9 190.683 90.6184C190.528 90.3369 190.322 90.1224 190.066 89.975C189.81 89.8275 189.534 89.7538 189.238 89.7538C188.941 89.7538 188.665 89.8275 188.409 89.975C188.153 90.1157 187.944 90.3269 187.782 90.6084C187.627 90.8832 187.55 91.2116 187.55 91.5937C187.55 91.9757 187.627 92.3109 187.782 92.5991C187.944 92.8873 188.153 93.1085 188.409 93.2627C188.672 93.4101 188.948 93.4839 189.238 93.4839C189.534 93.4839 189.81 93.4101 190.066 93.2627C190.322 93.1152 190.528 92.9007 190.683 92.6192C190.845 92.331 190.926 91.9959 190.926 91.6138Z" fill="#173C6C"/>
<path d="M194.753 86.9487V94.3887H193.601V86.9487H194.753Z" fill="#173C6C"/>
<path d="M201.37 91.4831C201.37 91.6909 201.357 91.8786 201.33 92.0461H197.075C197.108 92.4885 197.274 92.8438 197.57 93.1119C197.866 93.38 198.23 93.514 198.662 93.514C199.281 93.514 199.719 93.256 199.975 92.7399H201.219C201.05 93.2493 200.744 93.6682 200.299 93.9966C199.861 94.3184 199.315 94.4792 198.662 94.4792C198.129 94.4792 197.651 94.3619 197.226 94.1273C196.809 93.886 196.478 93.5509 196.236 93.1219C196 92.6862 195.882 92.1835 195.882 91.6138C195.882 91.0441 195.997 90.5447 196.226 90.1157C196.462 89.6801 196.788 89.3449 197.206 89.1103C197.631 88.8757 198.116 88.7584 198.662 88.7584C199.187 88.7584 199.655 88.8724 200.066 89.1003C200.477 89.3282 200.798 89.6499 201.027 90.0655C201.256 90.4743 201.37 90.9469 201.37 91.4831ZM200.168 91.1211C200.161 90.6989 200.009 90.3604 199.713 90.1057C199.416 89.851 199.049 89.7236 198.611 89.7236C198.213 89.7236 197.873 89.851 197.59 90.1057C197.307 90.3537 197.139 90.6922 197.085 91.1211H200.168Z" fill="#173C6C"/>
<path d="M204.526 94.4792C204.088 94.4792 203.693 94.4021 203.343 94.248C202.999 94.0871 202.727 93.8726 202.524 93.6045C202.322 93.3297 202.214 93.0247 202.201 92.6896H203.394C203.414 92.9242 203.525 93.1219 203.727 93.2828C203.936 93.4369 204.195 93.514 204.505 93.514C204.829 93.514 205.078 93.4537 205.253 93.3331C205.435 93.2057 205.526 93.0448 205.526 92.8505C205.526 92.6427 205.425 92.4885 205.223 92.388C205.028 92.2874 204.714 92.1768 204.283 92.0562C203.865 91.9422 203.525 91.8316 203.262 91.7244C202.999 91.6172 202.77 91.4529 202.575 91.2317C202.386 91.0106 202.292 90.719 202.292 90.357C202.292 90.0621 202.38 89.794 202.555 89.5527C202.73 89.3047 202.979 89.1103 203.303 88.9696C203.633 88.8288 204.01 88.7584 204.435 88.7584C205.068 88.7584 205.577 88.9193 205.961 89.241C206.352 89.5561 206.561 89.9884 206.587 90.538H205.435C205.415 90.29 205.314 90.0923 205.132 89.9448C204.95 89.7974 204.704 89.7236 204.394 89.7236C204.091 89.7236 203.859 89.7806 203.697 89.8945C203.535 90.0085 203.454 90.1593 203.454 90.347C203.454 90.4944 203.508 90.6184 203.616 90.719C203.724 90.8195 203.855 90.9 204.01 90.9603C204.165 91.0139 204.394 91.0843 204.697 91.1714C205.102 91.2787 205.432 91.3893 205.688 91.5032C205.951 91.6104 206.176 91.7713 206.365 91.9858C206.554 92.2003 206.651 92.4852 206.658 92.8404C206.658 93.1554 206.571 93.4369 206.395 93.6849C206.22 93.933 205.971 94.1273 205.647 94.2681C205.331 94.4088 204.957 94.4792 204.526 94.4792Z" fill="#173C6C"/>
</g>
<path id="Vector" d="M205.991 99.7885H1.68983C1.30467 99.7885 1.00098 99.479 1.00098 99.1032C1.00098 98.7201 1.31207 98.418 1.68983 98.418H205.991C206.376 98.418 206.68 98.7274 206.68 99.1032C206.687 99.479 206.376 99.7885 205.991 99.7885Z" fill="#DB1D26"/>
<path id="Vector_2" d="M123.654 14.582C123.247 15.5031 122.847 16.2988 122.506 16.8956C122.284 17.2862 121.699 17.1314 121.699 16.6893C121.699 16.6893 121.625 16.2472 121.536 15.7094L127.136 50.2147L103.115 53.6703L103.463 55.8292L129.736 52.0641" fill="#929497"/>
<path id="Vector_3" d="M59.7537 69.6668C60.687 68.1785 61.1536 65.9312 61.1536 62.9249C61.1536 59.8892 60.687 57.6346 59.7537 56.1609C58.8204 54.6873 57.3094 53.9578 55.2206 53.9578C53.1318 53.9578 51.6208 54.6947 50.6875 56.1609C49.7542 57.6346 49.2876 59.8892 49.2876 62.9249C49.2876 65.9312 49.7542 68.1785 50.6875 69.6668C51.6208 71.1552 53.1318 71.8994 55.2206 71.8994C57.3094 71.8994 58.8204 71.1552 59.7537 69.6668ZM42.199 75.5246C39.2362 72.5625 37.7622 68.37 37.7622 62.9249C37.7622 57.4872 39.2436 53.2873 42.199 50.3253C45.1544 47.3707 49.5024 45.8896 55.2206 45.8896C60.9388 45.8896 65.2868 47.3707 68.2422 50.3253C71.1976 53.2873 72.679 57.4872 72.679 62.9249C72.679 68.3627 71.1976 72.5625 68.2422 75.5246C65.2868 78.4866 60.9388 79.9602 55.2206 79.9602C49.5024 79.9602 45.1544 78.4792 42.199 75.5246Z" fill="#173C6C"/>
<path id="Vector_4" d="M77.4343 79.2376C76.9899 78.7734 76.7603 78.0587 76.7603 77.0935V48.7775C76.7603 47.8122 76.9825 47.1049 77.4343 46.6554C77.8787 46.206 78.6639 45.9775 79.7897 45.9775H84.5006C85.1969 45.9775 85.7302 46.0733 86.1154 46.2502C86.4931 46.4344 86.8709 46.788 87.2338 47.3259L96.2112 60.7582V48.8217C96.2112 47.8564 96.4334 47.1417 96.8778 46.6775C97.3222 46.2133 98.0925 45.9775 99.1814 45.9775H105.085C106.211 45.9775 106.996 46.206 107.44 46.6554C107.885 47.1049 108.107 47.827 108.107 48.829V77.145C108.107 78.1103 107.885 78.8176 107.44 79.2671C106.996 79.7165 106.211 79.9376 105.085 79.9376H100.374C99.6776 79.9376 99.1443 79.8492 98.7592 79.665C98.3814 79.4808 98.0037 79.1271 97.6407 78.5892L88.6634 65.157V77.145C88.6634 78.1103 88.4412 78.8176 87.9893 79.2671C87.5449 79.7165 86.7598 79.9376 85.6339 79.9376H79.7305C78.6491 79.9376 77.8861 79.7092 77.4343 79.2376Z" fill="#173C6C"/>
<path id="Vector_5" d="M126.728 61.3112C127.81 61.3112 128.669 61.0312 129.299 60.4639C129.928 59.8965 130.239 59.0492 130.239 57.9145C130.239 56.7503 129.928 55.8809 129.299 55.3135C128.669 54.7461 127.817 54.4662 126.728 54.4662H123.269V61.3112M113.277 79.2454C112.818 78.7812 112.588 78.0665 112.588 77.1013V48.8295C112.588 47.8642 112.818 47.1495 113.277 46.6853C113.736 46.2211 114.522 45.9854 115.64 45.9854H127.795C132.876 45.9854 136.58 46.9727 138.906 48.9547C141.224 50.9368 142.387 53.9209 142.387 57.9218C142.387 61.9154 141.224 64.8995 138.906 66.8595C136.58 68.8268 132.898 69.8068 127.847 69.8068H124.795V77.1013C124.795 78.0665 124.566 78.7812 124.106 79.2454C123.647 79.7096 122.847 79.9454 121.692 79.9454H115.64C114.522 79.938 113.736 79.7096 113.277 79.2454Z" fill="#173C6C"/>
<path id="Vector_6" d="M147.468 79.2376C147.016 78.7734 146.794 78.0587 146.794 77.0935V48.8217C146.794 47.8564 147.016 47.1417 147.468 46.6775C147.92 46.2133 148.698 45.9775 149.801 45.9775H168.289C169.363 45.9775 170.089 46.206 170.474 46.6554C170.859 47.1049 171.052 47.827 171.052 48.829V51.6289C171.052 52.631 170.859 53.3531 170.474 53.8026C170.089 54.252 169.363 54.4804 168.289 54.4804H158.838V58.7761H165.608C166.682 58.7761 167.408 58.9972 167.793 59.4466C168.178 59.8961 168.371 60.6182 168.371 61.6202V64.317C168.371 65.3191 168.178 66.0411 167.793 66.4906C167.408 66.9401 166.682 67.1685 165.608 67.1685H158.838V71.4641H168.237C169.304 71.4641 170.037 71.6926 170.422 72.1347C170.808 72.5841 171 73.3062 171 74.3083V77.1082C171 78.1103 170.808 78.8323 170.422 79.2818C170.037 79.7313 169.311 79.9523 168.237 79.9523H149.801C148.698 79.9376 147.92 79.7092 147.468 79.2376Z" fill="#173C6C"/>
<path id="Vector_7" d="M121.529 15.7095C121.455 15.2821 121.373 14.7885 121.306 14.3979C121.158 13.5064 123.366 10.5075 123.388 6.81606C123.403 4.36981 121.966 2.12251 121.018 1.23096C120.736 0.965706 120.929 0.494141 121.314 0.494141L85.3082 0.501509L85.3008 0.560455C85.3452 0.597296 85.3823 0.641505 85.4045 0.685714C85.6637 1.17938 85.0119 6.77922 86.0489 14.7958C86.7748 20.3736 88.9895 31.2564 88.9895 31.2564C89.2413 32.5974 90.5894 33.4595 91.9449 33.0911C93.1522 32.7595 93.8263 31.4627 93.5967 30.2396L92.0708 22.024L95.4929 21.022L97.8631 33.7689C98.115 35.11 99.463 35.972 100.819 35.6036C102.026 35.2721 102.7 33.9753 102.47 32.7521L100.041 19.6957L103.463 18.6936L106.818 36.7678C107.07 38.1088 108.426 38.9709 109.774 38.6025C110.981 38.2709 111.655 36.9741 111.433 35.751L108.018 17.36L111.44 16.3579L114.573 33.2016C114.825 34.5426 116.173 35.4121 117.529 35.0363C118.736 34.7047 119.41 33.4079 119.188 32.1848L115.173 10.5812C115.173 10.5591 115.181 10.5444 115.203 10.537L117.158 10.176C117.181 10.1686 117.203 10.1833 117.203 10.2054L121.44 33.0248C121.78 34.8594 120.566 36.6204 118.721 36.9594L118.707 36.9299C118.618 36.952 118.529 36.9888 118.432 37.0109L116.973 37.2762C115.359 37.5709 113.803 36.6794 113.211 35.2278C113.196 35.1836 113.136 35.1984 113.144 35.2426L113.396 36.5983C113.744 38.4551 112.507 40.2309 110.648 40.5772L109.263 40.835C107.396 41.1814 105.611 39.9509 105.263 38.0941L104.559 34.3142C104.552 34.27 104.492 34.2773 104.492 34.3216C104.463 35.891 103.33 37.2762 101.715 37.5709L100.293 37.8362C99.5297 37.9762 98.789 37.8509 98.1446 37.5341L100.811 53.9873L127.106 50.2" fill="white"/>
<path id="Vector_8" d="M100.315 37.8437L101.737 37.5784C103.352 37.2837 104.485 35.8985 104.514 34.3291C104.514 34.2849 104.574 34.2775 104.581 34.3217L105.285 38.1016C105.633 39.9584 107.418 41.1815 109.285 40.8426L110.67 40.5847C112.536 40.2384 113.766 38.4626 113.418 36.6058L113.166 35.2501C113.158 35.2059 113.218 35.1911 113.232 35.2354C113.825 36.6869 115.381 37.5784 116.995 37.2837L118.454 37.0185C118.551 37.0037 118.632 36.9669 118.729 36.9374L118.743 36.9669C120.588 36.6279 121.802 34.8669 121.462 33.0323L117.217 10.2129C117.21 10.1908 117.195 10.1761 117.173 10.1835L115.218 10.5445C115.195 10.5519 115.181 10.5666 115.188 10.5887L119.203 32.1923C119.432 33.4154 118.758 34.7122 117.543 35.0438C116.188 35.4122 114.84 34.5501 114.588 33.2091L111.455 16.3654L108.033 17.3675L111.447 35.7585C111.677 36.989 111.003 38.2784 109.788 38.61C108.433 38.9784 107.085 38.1163 106.833 36.7753L103.477 18.7011L100.055 19.7032L102.485 32.7596C102.715 33.9901 102.04 35.2796 100.826 35.6111C99.4702 35.9795 98.1221 35.1175 97.8703 33.7764L95.5 21.0295L92.078 22.0315L93.6038 30.2471C93.8335 31.4702 93.1594 32.767 91.9521 33.0986C90.5966 33.467 89.2485 32.6049 88.9967 31.2639C88.9967 31.2639 86.782 20.3811 86.0561 14.8033C85.0191 6.78672 85.6709 1.17952 85.4117 0.693218C85.3894 0.649009 85.3524 0.604799 85.308 0.567958C84.8858 0.206917 83.6784 0.221652 83.4043 0.656376C83.1007 1.13531 83.034 8.71719 83.8932 14.8696C84.6635 20.4105 87.1671 32.7007 87.1671 32.7007C87.5078 34.5354 89.2781 35.7438 91.1225 35.4048L91.4114 35.3532L92.5817 35.1396L92.8705 35.088C94.4853 34.7933 95.6186 33.408 95.6482 31.8386C95.6482 31.7944 95.7074 31.787 95.7149 31.8312L96.3296 35.1248C96.537 36.2227 97.2481 37.0995 98.1814 37.5563C98.811 37.8584 99.5591 37.9837 100.315 37.8437Z" fill="#DB1D26"/>
<path id="Vector_9" d="M125.254 4.32605C125.254 4.31868 124.766 1.94612 123.114 0.597739C123.032 0.531425 122.929 0.501953 122.825 0.501953H121.314C120.929 0.501953 120.729 0.973518 121.018 1.23877C121.966 2.13033 123.403 4.37763 123.388 6.82387C123.366 10.5153 121.151 13.5142 121.306 14.4058C121.373 14.7963 121.455 15.2899 121.529 15.7173C121.618 16.2625 121.692 16.6973 121.692 16.6973C121.692 17.1394 122.284 17.2941 122.499 16.9036C122.832 16.3067 123.24 15.511 123.647 14.59C124.958 11.6353 126.254 7.40596 125.254 4.32605Z" fill="#DB1D26"/>
</g>
</svg>
