<svg width="241" height="101" viewBox="0 0 241 101" fill="none" xmlns="http://www.w3.org/2000/svg">
<g id="logotipo voto electronico 2">
<g id="Group 451">
<g id="Group">
<path id="Vector" d="M33.3597 88.8018L31.0907 94.8441H29.9434L27.6616 88.8018H28.726L30.5171 93.8306L32.3145 88.8018H33.3597Z" fill="#0073CF"/>
<path id="Vector_2" d="M35.0429 94.6132C34.6796 94.4093 34.3928 94.1161 34.1824 93.74C33.9721 93.364 33.8701 92.9306 33.8701 92.4398C33.8701 91.9554 33.9785 91.522 34.1888 91.1459C34.4055 90.7699 34.6987 90.4767 35.0684 90.2727C35.4381 90.0688 35.8524 89.9668 36.3113 89.9668C36.7702 89.9668 37.1845 90.0688 37.5541 90.2727C37.9238 90.4767 38.217 90.7635 38.4337 91.1459C38.6504 91.522 38.7524 91.9554 38.7524 92.4398C38.7524 92.9242 38.644 93.3576 38.421 93.7337C38.1979 94.1097 37.8983 94.4029 37.5223 94.6069C37.1398 94.8108 36.7256 94.9128 36.2666 94.9128C35.8141 94.9256 35.4062 94.8172 35.0429 94.6132ZM36.9805 93.8803C37.2036 93.7592 37.382 93.5743 37.5223 93.3321C37.6625 93.0899 37.7326 92.7904 37.7326 92.4462C37.7326 92.0956 37.6625 91.8024 37.535 91.5602C37.4012 91.318 37.2227 91.1396 37.006 91.0185C36.7893 90.8974 36.5471 90.8336 36.2921 90.8336C36.0372 90.8336 35.8014 90.891 35.5847 91.0185C35.3679 91.1459 35.1959 91.3244 35.0684 91.5602C34.9409 91.8024 34.8772 92.0956 34.8772 92.4462C34.8772 92.9625 35.011 93.3576 35.2723 93.6444C35.5337 93.9313 35.8651 94.0651 36.2666 94.0651C36.5216 94.0587 36.7574 94.0014 36.9805 93.8803Z" fill="#0073CF"/>
<path id="Vector_3" d="M40.8941 90.8598V93.5112C40.8941 93.6897 40.9387 93.8172 41.0216 93.9C41.1044 93.9829 41.251 94.0147 41.455 94.0147H42.0669V94.8433H41.2829C40.8367 94.8433 40.4925 94.7414 40.2567 94.531C40.0209 94.3207 39.8998 93.9829 39.8998 93.5112V90.8598H39.3325V90.0503H39.8998V88.8584H40.9005V90.0503H42.0669V90.8598H40.8941Z" fill="#0073CF"/>
<path id="Vector_4" d="M43.8256 94.6132C43.4623 94.4093 43.1755 94.1161 42.9651 93.74C42.7548 93.364 42.6528 92.9306 42.6528 92.4398C42.6528 91.9554 42.7612 91.522 42.9715 91.1459C43.1882 90.7699 43.4814 90.4767 43.8511 90.2727C44.2208 90.0688 44.6351 89.9668 45.094 89.9668C45.5529 89.9668 45.9672 90.0688 46.3369 90.2727C46.7065 90.4767 46.9997 90.7635 47.2164 91.1459C47.4331 91.522 47.5351 91.9554 47.5351 92.4398C47.5351 92.9242 47.4268 93.3576 47.2037 93.7337C46.9806 94.1097 46.681 94.4029 46.305 94.6069C45.9226 94.8108 45.5083 94.9128 45.0494 94.9128C44.5968 94.9256 44.1889 94.8172 43.8256 94.6132ZM45.7696 93.8803C45.9927 93.7592 46.1711 93.5743 46.3114 93.3321C46.4516 93.0899 46.5217 92.7904 46.5217 92.4462C46.5217 92.0956 46.4516 91.8024 46.3241 91.5602C46.1903 91.318 46.0118 91.1396 45.7951 91.0185C45.5784 90.8974 45.3362 90.8336 45.0812 90.8336C44.8263 90.8336 44.5904 90.891 44.3737 91.0185C44.157 91.1459 43.9849 91.3244 43.8575 91.5602C43.73 91.8024 43.6663 92.0956 43.6663 92.4462C43.6663 92.9625 43.8001 93.3576 44.0614 93.6444C44.3228 93.9313 44.6542 94.0651 45.0557 94.0651C45.3043 94.0587 45.5465 94.0014 45.7696 93.8803Z" fill="#0073CF"/>
<path id="Vector_5" d="M51.7736 89.5976V91.3695H53.8578V92.1789H51.7736V94.0337H54.1191V94.8431H50.7793V88.7881H54.1191V89.5976H51.7736Z" fill="#0073CF"/>
<path id="Vector_6" d="M56.3307 88.4053V94.8427H55.3428V88.4053H56.3307Z" fill="#0073CF"/>
<path id="Vector_7" d="M61.9908 92.8173H58.3323C58.3578 93.1997 58.5044 93.5057 58.7594 93.7415C59.0143 93.9709 59.3266 94.092 59.6963 94.092C60.2317 94.092 60.6077 93.869 60.8245 93.4228H61.8952C61.7486 93.8626 61.4873 94.2259 61.1113 94.5063C60.7352 94.7868 60.2636 94.927 59.6963 94.927C59.2374 94.927 58.8295 94.825 58.4662 94.6211C58.1029 94.4171 57.8224 94.1239 57.6121 93.7479C57.4081 93.3718 57.3062 92.9384 57.3062 92.4476C57.3062 91.9568 57.4081 91.5234 57.6057 91.1474C57.8033 90.7713 58.0837 90.4845 58.4471 90.2806C58.8104 90.0766 59.2246 89.9746 59.6963 89.9746C60.1488 89.9746 60.5504 90.0766 60.9073 90.2678C61.2579 90.4654 61.5383 90.7395 61.7359 91.0964C61.9335 91.4533 62.0291 91.8612 62.0291 92.3265C62.0227 92.5114 62.0163 92.6771 61.9908 92.8173ZM60.9902 92.0206C60.9838 91.6573 60.8563 91.3641 60.595 91.141C60.3337 90.9179 60.0214 90.8096 59.6453 90.8096C59.3011 90.8096 59.0079 90.9179 58.7657 91.1346C58.5235 91.3513 58.3769 91.6445 58.3323 92.0142H60.9902V92.0206Z" fill="#0073CF"/>
<path id="Vector_8" d="M62.9722 91.1474C63.1698 90.7713 63.4502 90.4845 63.8008 90.2806C64.1514 90.0766 64.5593 89.9746 65.0182 89.9746C65.5982 89.9746 66.0762 90.1148 66.4586 90.3889C66.8411 90.663 67.096 91.0581 67.2299 91.568H66.1591C66.0698 91.3322 65.9296 91.1474 65.7384 91.0135C65.5472 90.8797 65.305 90.8159 65.0182 90.8159C64.6103 90.8159 64.2916 90.9562 64.0494 91.243C63.8072 91.5298 63.6861 91.9313 63.6861 92.4476C63.6861 92.9639 63.8072 93.3654 64.0494 93.6586C64.2916 93.9518 64.6103 94.092 65.0182 94.092C65.5918 94.092 65.9742 93.8371 66.1591 93.3336H67.2299C67.0896 93.818 66.8283 94.2068 66.4459 94.4936C66.0635 94.7804 65.5854 94.927 65.0182 94.927C64.5593 94.927 64.1514 94.825 63.8008 94.6211C63.4439 94.4171 63.1698 94.1239 62.9722 93.7479C62.7746 93.3718 62.6726 92.9384 62.6726 92.4476C62.6663 91.9505 62.7683 91.5171 62.9722 91.1474Z" fill="#0073CF"/>
<path id="Vector_9" d="M69.3775 90.8598V93.5112C69.3775 93.6897 69.4221 93.8172 69.505 93.9C69.5878 93.9829 69.7344 94.0147 69.9384 94.0147H70.5502V94.8433H69.7663C69.3201 94.8433 68.9759 94.7414 68.7401 94.531C68.5043 94.3207 68.3832 93.9829 68.3832 93.5112V90.8598H67.8159V90.0503H68.3832V88.8584H69.3839V90.0503H70.5502V90.8598H69.3775Z" fill="#0073CF"/>
<path id="Vector_10" d="M73.023 90.1786C73.2652 90.0447 73.5521 89.9746 73.8771 89.9746V91.0008H73.6222C73.2334 91.0008 72.9402 91.1028 72.7426 91.294C72.545 91.4916 72.443 91.8357 72.443 92.3201V94.8441H71.4487V90.0511H72.443V90.7458C72.5896 90.5036 72.7808 90.3188 73.023 90.1786Z" fill="#0073CF"/>
<path id="Vector_11" d="M75.6435 94.6141C75.2802 94.4102 74.9934 94.117 74.783 93.7409C74.5727 93.3649 74.4707 92.9315 74.4707 92.4407C74.4707 91.9563 74.5791 91.5229 74.7894 91.1468C75.0061 90.7708 75.2993 90.4776 75.669 90.2736C76.0386 90.0697 76.4529 89.9677 76.9118 89.9677C77.3708 89.9677 77.785 90.0697 78.1547 90.2736C78.5244 90.4776 78.8176 90.7644 79.0343 91.1468C79.251 91.5229 79.3594 91.9563 79.3594 92.4407C79.3594 92.9251 79.251 93.3585 79.0279 93.7346C78.8048 94.1106 78.5053 94.4038 78.1292 94.6078C77.7468 94.8117 77.3325 94.9137 76.8736 94.9137C76.4211 94.9265 76.0132 94.8181 75.6435 94.6141ZM77.5875 93.8812C77.8105 93.7601 77.989 93.5752 78.1292 93.333C78.2695 93.0908 78.3396 92.7913 78.3396 92.4471C78.3396 92.0965 78.2758 91.8033 78.142 91.5611C78.0081 91.3189 77.8297 91.1405 77.613 91.0194C77.3963 90.8983 77.1541 90.8345 76.8991 90.8345C76.6442 90.8345 76.4083 90.8919 76.1916 91.0194C75.9749 91.1405 75.8028 91.3253 75.6753 91.5611C75.5479 91.8033 75.4841 92.0965 75.4841 92.4471C75.4841 92.9633 75.618 93.3585 75.8793 93.6453C76.1406 93.9322 76.4721 94.066 76.8736 94.066C77.1286 94.0596 77.3644 94.0023 77.5875 93.8812ZM77.8105 88.6866L75.8857 89.6363V88.9033L77.8105 87.8389V88.6866Z" fill="#0073CF"/>
<path id="Vector_12" d="M83.7699 90.2104C84.0694 90.3698 84.3053 90.5992 84.471 90.9052C84.6367 91.2111 84.7259 91.5808 84.7259 92.0206V94.8441H83.7444V92.1672C83.7444 91.7401 83.636 91.4087 83.4257 91.1792C83.209 90.9498 82.9158 90.8351 82.5461 90.8351C82.1764 90.8351 81.8832 90.9498 81.6665 91.1792C81.4498 91.4087 81.3415 91.7401 81.3415 92.1672V94.8441H80.3472V90.0511H81.3415V90.5992C81.5008 90.4017 81.7111 90.2487 81.9597 90.1403C82.2147 90.032 82.4824 89.9746 82.7628 89.9746C83.1389 89.9746 83.4767 90.0511 83.7699 90.2104Z" fill="#0073CF"/>
<path id="Vector_13" d="M86.0384 89.2354C85.9173 89.1143 85.8535 88.9613 85.8535 88.7829C85.8535 88.6044 85.9109 88.4514 86.0384 88.3303C86.1595 88.2092 86.3124 88.1455 86.4909 88.1455C86.663 88.1455 86.8096 88.2092 86.9371 88.3303C87.0582 88.4514 87.1219 88.6044 87.1219 88.7829C87.1219 88.9613 87.0582 89.1143 86.9371 89.2354C86.816 89.3565 86.6694 89.4203 86.4909 89.4203C86.3124 89.4203 86.1595 89.3565 86.0384 89.2354ZM86.9753 90.0513V94.8443H85.981V90.0513H86.9753Z" fill="#0073CF"/>
<path id="Vector_14" d="M88.2502 91.1474C88.4478 90.7713 88.7283 90.4845 89.0788 90.2806C89.4294 90.0766 89.8373 89.9746 90.2962 89.9746C90.8762 89.9746 91.3543 90.1148 91.7367 90.3889C92.1191 90.663 92.3741 91.0581 92.5079 91.568H91.4371C91.3479 91.3322 91.2077 91.1474 91.0164 91.0135C90.8252 90.8797 90.583 90.8159 90.2962 90.8159C89.8883 90.8159 89.5696 90.9562 89.3274 91.243C89.0852 91.5298 88.9641 91.9313 88.9641 92.4476C88.9641 92.9639 89.0852 93.3654 89.3274 93.6586C89.5696 93.9518 89.8883 94.092 90.2962 94.092C90.8698 94.092 91.2523 93.8371 91.4371 93.3336H92.5079C92.3677 93.818 92.1064 94.2068 91.7239 94.4936C91.3415 94.7804 90.8635 94.927 90.2962 94.927C89.8373 94.927 89.4294 94.825 89.0788 94.6211C88.7219 94.4171 88.4478 94.1239 88.2502 93.7479C88.0527 93.3718 87.9507 92.9384 87.9507 92.4476C87.9507 91.9505 88.0527 91.5171 88.2502 91.1474Z" fill="#0073CF"/>
<path id="Vector_15" d="M94.35 94.6132C93.9867 94.4093 93.6999 94.1161 93.4896 93.74C93.2792 93.364 93.1772 92.9306 93.1772 92.4398C93.1772 91.9554 93.2856 91.522 93.4959 91.1459C93.7126 90.7699 94.0058 90.4767 94.3755 90.2727C94.7452 90.0688 95.1595 89.9668 95.6184 89.9668C96.0773 89.9668 96.4916 90.0688 96.8613 90.2727C97.2309 90.4767 97.5241 90.7635 97.7408 91.1459C97.9576 91.522 98.0595 91.9554 98.0595 92.4398C98.0595 92.9242 97.9512 93.3576 97.7281 93.7337C97.505 94.1097 97.2054 94.4029 96.8294 94.6069C96.447 94.8108 96.0327 94.9128 95.5738 94.9128C95.1276 94.9256 94.7197 94.8172 94.35 94.6132ZM96.294 93.8803C96.5171 93.7592 96.6956 93.5743 96.8358 93.3321C96.976 93.0899 97.0461 92.7904 97.0461 92.4462C97.0461 92.0956 96.976 91.8024 96.8485 91.5602C96.7147 91.318 96.5362 91.1396 96.3195 91.0185C96.1028 90.8974 95.8606 90.8336 95.6056 90.8336C95.3507 90.8336 95.1149 90.891 94.8982 91.0185C94.6814 91.1396 94.5094 91.3244 94.3819 91.5602C94.2544 91.8024 94.1907 92.0956 94.1907 92.4462C94.1907 92.9625 94.3245 93.3576 94.5858 93.6444C94.8472 93.9313 95.185 94.0651 95.5801 94.0651C95.8351 94.0587 96.0709 94.0014 96.294 93.8803Z" fill="#0073CF"/>
<path id="Vector_16" d="M106.275 94.8431H105.287L102.304 90.3305V94.8431H101.31V88.7881H102.304L105.287 93.2943V88.7881H106.275V94.8431Z" fill="#0073CF"/>
<path id="Vector_17" d="M108.436 94.6132C108.073 94.4093 107.786 94.1161 107.576 93.74C107.366 93.364 107.264 92.9306 107.264 92.4398C107.264 91.9554 107.372 91.522 107.582 91.1459C107.799 90.7699 108.092 90.4767 108.462 90.2727C108.832 90.0688 109.246 89.9668 109.705 89.9668C110.164 89.9668 110.578 90.0688 110.948 90.2727C111.317 90.4767 111.611 90.7635 111.827 91.1459C112.044 91.522 112.146 91.9554 112.146 92.4398C112.146 92.9242 112.038 93.3576 111.815 93.7337C111.591 94.1097 111.292 94.4029 110.916 94.6069C110.533 94.8108 110.119 94.9128 109.66 94.9128C109.208 94.9256 108.8 94.8172 108.436 94.6132ZM110.374 93.8803C110.597 93.7592 110.776 93.5743 110.916 93.3321C111.056 93.0899 111.126 92.7904 111.126 92.4462C111.126 92.0956 111.056 91.8024 110.929 91.5602C110.795 91.318 110.616 91.1396 110.4 91.0185C110.183 90.8974 109.941 90.8336 109.686 90.8336C109.431 90.8336 109.195 90.891 108.978 91.0185C108.761 91.1459 108.589 91.3244 108.462 91.5602C108.334 91.8024 108.271 92.0956 108.271 92.4462C108.271 92.9625 108.405 93.3576 108.666 93.6444C108.927 93.9313 109.259 94.0651 109.66 94.0651C109.915 94.0587 110.151 94.0014 110.374 93.8803Z" fill="#0073CF"/>
<path id="Vector_18" d="M119.399 91.4724C119.252 91.7464 119.023 91.9695 118.704 92.1352C118.385 92.3073 117.977 92.3902 117.48 92.3902H116.384V94.8441H115.396V88.8018H117.48C117.945 88.8018 118.334 88.8782 118.659 89.044C118.978 89.2033 119.22 89.42 119.38 89.6941C119.539 89.9681 119.622 90.2741 119.622 90.6055C119.615 90.9115 119.545 91.1983 119.399 91.4724ZM118.322 91.3258C118.506 91.1537 118.602 90.9115 118.602 90.5992C118.602 89.9363 118.226 89.6048 117.48 89.6048H116.384V91.5807H117.48C117.856 91.5807 118.137 91.4979 118.322 91.3258Z" fill="#0073CF"/>
<path id="Vector_19" d="M122.133 90.1786C122.376 90.0447 122.662 89.9746 122.987 89.9746V91.0008H122.732C122.344 91.0008 122.051 91.1028 121.853 91.294C121.655 91.4916 121.553 91.8357 121.553 92.3201V94.8441H120.565V90.0511H121.553V90.7458C121.7 90.5036 121.898 90.3188 122.133 90.1786Z" fill="#0073CF"/>
<path id="Vector_20" d="M128.265 92.8173H124.6C124.632 93.1997 124.772 93.5057 125.027 93.7415C125.282 93.9709 125.594 94.092 125.964 94.092C126.499 94.092 126.875 93.869 127.092 93.4228H128.163C128.016 93.8626 127.755 94.2259 127.373 94.5063C126.99 94.7868 126.525 94.927 125.958 94.927C125.499 94.927 125.091 94.825 124.727 94.6211C124.364 94.4171 124.084 94.1239 123.873 93.7479C123.669 93.3718 123.567 92.9384 123.567 92.4476C123.567 91.9568 123.669 91.5234 123.867 91.1474C124.065 90.7713 124.345 90.4845 124.708 90.2806C125.072 90.0766 125.486 89.9746 125.958 89.9746C126.41 89.9746 126.812 90.0766 127.169 90.2678C127.519 90.4654 127.8 90.7395 127.997 91.0964C128.195 91.4533 128.29 91.8612 128.29 92.3265C128.297 92.5114 128.284 92.6771 128.265 92.8173ZM127.264 92.0206C127.258 91.6573 127.13 91.3641 126.875 91.141C126.62 90.9179 126.302 90.8096 125.926 90.8096C125.581 90.8096 125.288 90.9179 125.046 91.1346C124.804 91.3513 124.657 91.6445 124.613 92.0142H127.264V92.0206Z" fill="#0073CF"/>
<path id="Vector_21" d="M129.999 94.7167C129.699 94.5828 129.463 94.398 129.291 94.1622C129.119 93.9263 129.023 93.665 129.011 93.3782H130.037C130.056 93.5821 130.152 93.7479 130.33 93.8881C130.509 94.0283 130.732 94.092 130.993 94.092C131.273 94.092 131.49 94.0411 131.643 93.9327C131.796 93.8243 131.873 93.6905 131.873 93.5184C131.873 93.3399 131.79 93.2061 131.618 93.1169C131.446 93.0276 131.178 92.932 130.802 92.83C130.445 92.7344 130.152 92.6388 129.922 92.5432C129.693 92.4476 129.502 92.3074 129.336 92.1162C129.17 91.925 129.087 91.67 129.087 91.3577C129.087 91.1028 129.164 90.8669 129.317 90.6566C129.47 90.4463 129.68 90.2806 129.967 90.1595C130.247 90.0384 130.572 89.9746 130.936 89.9746C131.484 89.9746 131.917 90.1148 132.255 90.3889C132.593 90.663 132.765 91.039 132.79 91.5171H131.802C131.783 91.3003 131.7 91.1346 131.541 91.0072C131.382 90.8797 131.171 90.8159 130.904 90.8159C130.642 90.8159 130.445 90.8669 130.305 90.9625C130.164 91.0645 130.094 91.192 130.094 91.3513C130.094 91.4788 130.139 91.5872 130.234 91.67C130.33 91.7593 130.438 91.823 130.572 91.874C130.706 91.925 130.904 91.9887 131.165 92.0588C131.509 92.1544 131.796 92.2437 132.019 92.3393C132.242 92.4349 132.433 92.5751 132.599 92.7599C132.759 92.9448 132.848 93.1933 132.854 93.4993C132.854 93.7734 132.778 94.0156 132.631 94.2323C132.478 94.449 132.268 94.6147 131.994 94.7358C131.72 94.8569 131.395 94.9206 131.025 94.9206C130.636 94.927 130.298 94.8569 129.999 94.7167Z" fill="#0073CF"/>
<path id="Vector_22" d="M138.272 92.8173H134.607C134.639 93.1997 134.779 93.5057 135.034 93.7415C135.289 93.9709 135.601 94.092 135.971 94.092C136.506 94.092 136.882 93.869 137.099 93.4228H138.17C138.023 93.8626 137.762 94.2259 137.379 94.5063C136.997 94.7868 136.532 94.927 135.964 94.927C135.505 94.927 135.098 94.825 134.734 94.6211C134.371 94.4171 134.084 94.1239 133.88 93.7479C133.676 93.3718 133.574 92.9384 133.574 92.4476C133.574 91.9568 133.676 91.5234 133.874 91.1474C134.071 90.7713 134.352 90.4845 134.715 90.2806C135.078 90.0766 135.493 89.9746 135.964 89.9746C136.417 89.9746 136.818 90.0766 137.175 90.2678C137.532 90.4654 137.806 90.7395 138.004 91.0964C138.202 91.4533 138.297 91.8612 138.297 92.3265C138.31 92.5114 138.297 92.6771 138.272 92.8173ZM137.271 92.0206C137.265 91.6573 137.137 91.3641 136.882 91.141C136.627 90.9179 136.309 90.8096 135.932 90.8096C135.588 90.8096 135.295 90.9179 135.053 91.1346C134.811 91.3513 134.664 91.6445 134.62 92.0142H137.271V92.0206Z" fill="#0073CF"/>
<path id="Vector_23" d="M142.714 90.2104C143.014 90.3698 143.243 90.5992 143.415 90.9052C143.581 91.2111 143.67 91.5808 143.67 92.0206V94.8441H142.689V92.1672C142.689 91.7401 142.58 91.4087 142.364 91.1792C142.147 90.9498 141.854 90.8351 141.484 90.8351C141.114 90.8351 140.821 90.9498 140.605 91.1792C140.388 91.4087 140.279 91.7401 140.279 92.1672V94.8441H139.285V90.0511H140.279V90.5992C140.439 90.4017 140.649 90.2487 140.904 90.1403C141.159 90.032 141.427 89.9746 141.707 89.9746C142.077 89.9746 142.415 90.0511 142.714 90.2104Z" fill="#0073CF"/>
<path id="Vector_24" d="M144.894 91.1474C145.092 90.7713 145.372 90.4845 145.723 90.2806C146.073 90.0766 146.481 89.9746 146.94 89.9746C147.52 89.9746 147.998 90.1148 148.38 90.3889C148.763 90.663 149.018 91.0581 149.152 91.568H148.081C147.992 91.3322 147.858 91.1474 147.667 91.0135C147.475 90.8797 147.233 90.8159 146.946 90.8159C146.538 90.8159 146.22 90.9562 145.978 91.243C145.735 91.5298 145.614 91.9313 145.614 92.4476C145.614 92.9639 145.735 93.3654 145.978 93.6586C146.22 93.9518 146.538 94.092 146.946 94.092C147.52 94.092 147.902 93.8371 148.087 93.3336H149.158C149.018 93.818 148.757 94.2068 148.374 94.4936C147.992 94.7804 147.514 94.927 146.946 94.927C146.487 94.927 146.08 94.825 145.729 94.6211C145.378 94.4171 145.098 94.1239 144.9 93.7479C144.703 93.3718 144.601 92.9384 144.601 92.4476C144.594 91.9505 144.696 91.5171 144.894 91.1474Z" fill="#0073CF"/>
<path id="Vector_25" d="M150.197 89.2354C150.076 89.1143 150.012 88.9613 150.012 88.7829C150.012 88.6044 150.076 88.4514 150.197 88.3303C150.318 88.2092 150.471 88.1455 150.65 88.1455C150.822 88.1455 150.975 88.2092 151.096 88.3303C151.217 88.4514 151.281 88.6044 151.281 88.7829C151.281 88.9613 151.217 89.1143 151.096 89.2354C150.975 89.3565 150.828 89.4203 150.65 89.4203C150.471 89.4203 150.318 89.3565 150.197 89.2354ZM151.134 90.0513V94.8443H150.14V90.0513H151.134Z" fill="#0073CF"/>
<path id="Vector_26" d="M152.408 91.1474C152.606 90.7777 152.88 90.4845 153.224 90.2806C153.568 90.0766 153.951 89.9746 154.365 89.9746C154.741 89.9746 155.073 90.0511 155.353 90.1977C155.634 90.3443 155.857 90.5291 156.029 90.7522V90.0575H157.029V94.8505H156.029V94.1367C155.863 94.3661 155.634 94.551 155.34 94.7039C155.047 94.8569 154.722 94.9334 154.346 94.9334C153.932 94.9334 153.556 94.825 153.218 94.6147C152.88 94.4044 152.606 94.1048 152.402 93.7287C152.205 93.3463 152.103 92.9193 152.103 92.4349C152.109 91.9441 152.211 91.5234 152.408 91.1474ZM155.825 91.5808C155.691 91.3386 155.512 91.1538 155.289 91.0263C155.066 90.8988 154.83 90.8351 154.576 90.8351C154.321 90.8351 154.085 90.8988 153.862 91.0199C153.639 91.141 153.467 91.3258 153.326 91.568C153.192 91.8102 153.122 92.0971 153.122 92.4221C153.122 92.7472 153.192 93.0404 153.326 93.2889C153.46 93.5375 153.645 93.7287 153.868 93.8562C154.091 93.9837 154.327 94.0538 154.576 94.0538C154.83 94.0538 155.066 93.9901 155.289 93.8626C155.512 93.7351 155.685 93.5503 155.825 93.3017C155.965 93.0531 156.029 92.7663 156.029 92.4349C156.029 92.1162 155.965 91.8294 155.825 91.5808Z" fill="#0073CF"/>
<path id="Vector_27" d="M159.33 88.4053V94.8427H158.336V88.4053H159.33Z" fill="#0073CF"/>
</g>
<g id="Group_2">
<g id="Group_3">
<path id="Vector_28" d="M63.5197 80.4789C63.1373 80.1985 62.8186 79.7141 62.5509 79.0193L50.7085 49.3368C50.5428 48.9098 50.46 48.5465 50.46 48.2469C50.46 47.5522 50.8233 47.208 51.5499 47.208H60.8619C61.8881 47.208 62.5318 47.6542 62.7931 48.5465L67.8475 64.6975L72.9019 48.5465C73.1696 47.6542 73.807 47.208 74.8331 47.208H84.1515C84.8781 47.208 85.2414 47.5522 85.2414 48.2469C85.2414 48.5465 85.1586 48.9098 84.9929 49.3368L73.2015 79.0193C72.9338 79.7141 72.6151 80.1985 72.2326 80.4789C71.8502 80.7594 71.2957 80.8996 70.5691 80.8996H65.1705C64.4567 80.8996 63.9022 80.7594 63.5197 80.4789Z" fill="#173C6C"/>
<path id="Vector_29" d="M88.3968 80.2048C87.9506 79.7396 87.7275 79.0321 87.7275 78.076V50.0316C87.7275 49.0755 87.9506 48.3617 88.3968 47.9027C88.8429 47.4375 89.6078 47.208 90.7041 47.208H111.221C112.279 47.208 112.993 47.4311 113.375 47.8773C113.758 48.3234 113.943 49.0436 113.943 50.0316V52.8041C113.943 53.7921 113.752 54.5123 113.375 54.9585C112.993 55.4046 112.279 55.6277 111.221 55.6277H99.6273V59.8854H106.76C107.818 59.8854 108.538 60.1084 108.914 60.5546C109.29 61.0008 109.481 61.721 109.481 62.7089V65.3859C109.481 66.3738 109.29 67.0941 108.914 67.5402C108.531 67.9864 107.818 68.2095 106.76 68.2095H99.6273V72.4671H111.17C112.228 72.4671 112.948 72.6902 113.324 73.1364C113.701 73.5825 113.892 74.3028 113.892 75.2907V78.0633C113.892 79.0512 113.701 79.7714 113.324 80.2176C112.942 80.6637 112.228 80.8868 111.17 80.8868H90.7041C89.6142 80.8996 88.8429 80.6701 88.3968 80.2048Z" fill="#173C6C"/>
<path id="Vector_30" d="M116.836 80.2048C116.39 79.7396 116.167 79.0321 116.167 78.076V49.9806C116.167 49.0245 116.39 48.3234 116.836 47.8773C117.282 47.4311 118.066 47.208 119.188 47.208H123.898C124.593 47.208 125.128 47.2972 125.51 47.4821C125.893 47.6669 126.262 48.0175 126.626 48.5465L135.594 61.874V50.0316C135.594 49.0755 135.817 48.3617 136.263 47.9027C136.709 47.4375 137.474 47.208 138.57 47.208H144.466C145.588 47.208 146.372 47.4311 146.818 47.8773C147.264 48.3234 147.487 49.0436 147.487 50.0316V78.127C147.487 79.0831 147.264 79.7842 146.818 80.2303C146.372 80.6765 145.588 80.8996 144.466 80.8996H139.756C139.061 80.8996 138.526 80.8103 138.143 80.6255C137.761 80.4407 137.391 80.0901 137.028 79.5611L128.06 66.2336V78.127C128.06 79.0831 127.837 79.7842 127.391 80.2303C126.944 80.6765 126.161 80.8996 125.039 80.8996H119.143C118.053 80.8996 117.282 80.6701 116.836 80.2048Z" fill="#173C6C"/>
<path id="Vector_31" d="M151.623 80.2048C151.177 79.7396 150.954 79.0321 150.954 78.076V50.0316C150.954 49.0755 151.177 48.3617 151.623 47.9027C152.07 47.4375 152.834 47.208 153.931 47.208H165.773C170.732 47.208 174.339 48.1896 176.602 50.1591C178.865 52.1222 179.999 55.0859 179.999 59.0568C179.999 63.0212 178.865 65.9787 176.602 67.929C174.339 69.8794 170.745 70.8546 165.824 70.8546H162.854V78.0888C162.854 79.0448 162.631 79.7587 162.185 80.2176C161.738 80.6829 160.954 80.9123 159.833 80.9123H153.937C152.834 80.8996 152.07 80.6701 151.623 80.2048ZM164.728 62.4157C165.786 62.4157 166.621 62.1353 167.233 61.5744C167.845 61.0135 168.15 60.1722 168.15 59.044C168.15 57.8904 167.845 57.0299 167.233 56.469C166.621 55.9082 165.786 55.6277 164.728 55.6277H161.356V62.4157H164.728Z" fill="#173C6C"/>
</g>
<g id="Group_4">
<path id="Vector_32" d="M44.7175 78.7966L42.4867 76.1833C42.0405 75.6352 41.2119 75.291 40.3196 75.291H12.2114C11.3828 75.291 10.618 75.6352 10.1081 76.1196L7.5586 78.7328C7.0487 79.3511 6.85749 80.1096 7.11244 80.7979C7.43112 81.6902 8.45092 82.3149 9.66193 82.3149H42.5504C43.6977 82.3149 44.7175 81.7667 45.0362 80.7979C45.3548 80.1032 45.2274 79.3447 44.7175 78.7966Z" fill="#003770"/>
<path id="Vector_33" d="M40.3194 76.4258H12.2113C11.8288 76.4258 11.5739 76.5724 11.5101 76.6425L9.15186 79.1601C9.27933 79.2302 42.9327 79.1601 43.0601 79.1601L41.0205 76.6425C40.9568 76.5724 40.7018 76.4258 40.3194 76.4258Z" fill="white"/>
<path id="Vector_34" d="M16.2524 81.4667C16.6396 81.4667 16.9535 81.1528 16.9535 80.7656C16.9535 80.3784 16.6396 80.0645 16.2524 80.0645C15.8652 80.0645 15.5513 80.3784 15.5513 80.7656C15.5513 81.1528 15.8652 81.4667 16.2524 81.4667Z" fill="white"/>
<path id="Vector_35" d="M14.1808 81.4667H10.4394C9.90399 81.4667 9.50244 81.1671 9.50244 80.7656C9.50244 80.364 9.90399 80.0645 10.4394 80.0645H14.1808C14.7162 80.0645 15.1177 80.364 15.1177 80.7656C15.1177 81.1671 14.7162 81.4667 14.1808 81.4667Z" fill="white"/>
<g id="Group_5">
<path id="Vector_36" d="M30.9437 61.4102L23.155 59.326C22.3328 59.1029 21.842 58.2552 22.0651 57.433L25.628 44.1438C25.8511 43.3215 26.6988 42.8308 27.521 43.0538L35.3097 45.1381C36.1319 45.3611 36.6227 46.2088 36.3996 47.0311L32.8367 60.3203C32.6136 61.1425 31.7723 61.6269 30.9437 61.4102Z" fill="#69B2E8"/>
<path id="Vector_37" d="M25.9401 52.2572C25.8636 52.0405 25.9337 51.8493 26.1504 51.7728L26.8388 51.4987C27.0555 51.4223 27.2467 51.4924 27.3232 51.7091L27.8458 52.9137L31.8868 50.1411C32.0525 50.0264 32.282 50.0455 32.3967 50.2113L32.8365 50.7913C32.9512 50.957 32.9384 51.1864 32.7664 51.3012L28.0243 54.5773C27.6929 54.8067 27.183 54.7366 26.9535 54.4052C26.9535 54.3988 25.9401 52.2572 25.9401 52.2572Z" fill="white"/>
</g>
<g id="Group_6">
<path id="Vector_38" d="M20.9054 68.2747L13.1167 70.359C12.2945 70.582 11.4468 70.0913 11.2237 69.269L7.66078 55.9798C7.4377 55.1576 7.92847 54.3099 8.75069 54.0868L16.5394 51.9962C17.3616 51.7731 18.2093 52.2639 18.4324 53.0861L21.9953 66.3754C22.2184 67.204 21.7276 68.0517 20.9054 68.2747Z" fill="#003770"/>
<path id="Vector_39" d="M11.9947 62.8505C11.8227 62.6975 11.7844 62.4999 11.931 62.3278L12.3899 61.7415C12.5429 61.5694 12.7405 61.5311 12.9126 61.6777L13.9706 62.4553L16.0803 58.0383C16.1695 57.8599 16.3735 57.7579 16.5583 57.8407L17.2276 58.1212C17.406 58.2104 17.508 58.4144 17.4252 58.5992L14.9585 63.8066C14.7864 64.1699 14.3084 64.3674 13.9451 64.189C13.9451 64.1954 11.9947 62.8505 11.9947 62.8505Z" fill="white"/>
</g>
<path id="Vector_40" d="M40.3194 76.4258H12.2113C11.8288 76.4258 11.5739 76.5724 11.5101 76.6425L9.15186 79.1601C9.27933 79.2302 42.9327 79.1601 43.0601 79.1601L41.0205 76.6425C40.9568 76.5724 40.7018 76.4258 40.3194 76.4258Z" fill="white"/>
<path id="Vector_41" d="M20.9947 78.1208L21.2688 77.1074H17.145C16.7562 77.1074 16.4438 77.4197 16.4438 77.8085C16.4438 78.1973 16.7562 78.5096 17.145 78.5096H20.9501C20.9501 78.3822 20.9628 78.2547 20.9947 78.1208Z" fill="#003770"/>
<path id="Vector_42" d="M35.0679 77.1074H32.8179L32.4419 78.5096H35.0679C35.4567 78.5096 35.769 78.1973 35.769 77.8085C35.769 77.4197 35.4567 77.1074 35.0679 77.1074Z" fill="#003770"/>
<path id="Vector_43" d="M35.329 67.7195C35.5521 66.8973 35.0613 66.0496 34.2391 65.8265L26.4504 63.7423C25.6282 63.5192 24.7805 64.01 24.5574 64.8322L21.2686 77.108H32.8178L35.329 67.7195ZM26.9603 75.266C26.6289 75.4955 26.119 75.4254 25.8895 75.0939L24.8761 72.9587C24.7996 72.742 24.8697 72.5508 25.0864 72.4743L25.7748 72.2003C25.9915 72.1238 26.1827 72.1939 26.2592 72.4106L26.7818 73.6152L30.8228 70.8427C30.9885 70.7279 31.218 70.7407 31.3327 70.9128L31.7725 71.4928C31.8872 71.6585 31.8745 71.888 31.7024 72.0027L26.9603 75.266Z" fill="#0073CF"/>
<path id="Vector_44" d="M21.2684 77.1074L20.9943 78.1208C20.9625 78.2483 20.9497 78.3822 20.9497 78.5096H32.4416L32.8176 77.1074H21.2684Z" fill="#0073CF"/>
<path id="Vector_45" d="M31.7722 71.48L31.3324 70.9C31.2177 70.7342 30.9883 70.7215 30.8225 70.8298L26.7816 73.6024L26.2589 72.3978C26.1825 72.1811 25.9912 72.1173 25.7745 72.1875L25.0862 72.4615C24.8695 72.538 24.8057 72.7292 24.8758 72.9459L25.8893 75.0811C26.1187 75.4126 26.6222 75.4827 26.9601 75.2532L31.7021 71.9771C31.8678 71.8751 31.8806 71.6457 31.7722 71.48Z" fill="white"/>
</g>
</g>
</g>
</g>
</svg>
