<svg width="24" height="24" viewBox="0 0 24 24" fill="none" xmlns="http://www.w3.org/2000/svg">
<path d="M22.1829 11.834L13.1267 2.78248L12.5196 2.17545C12.3813 2.03805 12.1943 1.96094 11.9993 1.96094C11.8044 1.96094 11.6173 2.03805 11.479 2.17545L1.81572 11.834C1.674 11.9752 1.56199 12.1433 1.48631 12.3285C1.41063 12.5137 1.37282 12.7121 1.3751 12.9122C1.38447 13.7372 2.07119 14.3958 2.89619 14.3958H3.89228V22.0294H20.1063V14.3958H21.1235C21.5243 14.3958 21.9017 14.2387 22.1853 13.9551C22.3249 13.8159 22.4355 13.6504 22.5108 13.4682C22.586 13.2859 22.6243 13.0906 22.6235 12.8934C22.6235 12.495 22.4665 12.1176 22.1829 11.834ZM13.3118 20.3419H10.6868V15.5606H13.3118V20.3419ZM18.4188 12.7083V20.3419H14.8118V14.9981C14.8118 14.4801 14.3923 14.0606 13.8743 14.0606H10.1243C9.60635 14.0606 9.18682 14.4801 9.18682 14.9981V20.3419H5.57978V12.7083H3.32978L12.0017 4.04342L12.5431 4.58482L20.6712 12.7083H18.4188Z" fill="#0073CF"/>
</svg>
