<svg width="24" height="24" viewBox="0 0 24 24" fill="none" xmlns="http://www.w3.org/2000/svg">
<path d="M4 18H20C21.1 18 21.99 17.1 21.99 16L22 5C22 3.9 21.1 3 20 3H4C2.9 3 2 3.9 2 5V16C2 17.1 2.9 18 4 18ZM4 5H20V16H4V5ZM1 19H23V21H1V19Z" fill="#0073CF"/>
<path d="M13.9697 7.53141C12.5997 6.16141 10.3897 6.16141 9.01969 7.53141C7.64969 8.90141 7.64969 11.1114 9.01969 12.4814C10.1997 13.6614 12.0197 13.8214 13.3797 12.9514L15.4697 15.0414L16.5297 13.9814L14.4397 11.8914C15.3097 10.5314 15.1597 8.71141 13.9697 7.53141ZM12.9097 11.4114C12.1297 12.1914 10.8597 12.1914 10.0797 11.4114C9.29969 10.6314 9.29969 9.36141 10.0797 8.58141C10.8597 7.80141 12.1297 7.80141 12.9097 8.58141C13.6897 9.37141 13.6897 10.6314 12.9097 11.4114Z" fill="#0073CF"/>
</svg>
