<svg width="20" height="20" viewBox="0 0 28 25" fill="none" xmlns="http://www.w3.org/2000/svg">
<path d="M6.85087 6.74719C6.74708 6.8402 6.66473 6.95067 6.60854 7.07229C6.55236 7.19391 6.52344 7.32429 6.52344 7.45596C6.52344 7.58763 6.55236 7.718 6.60854 7.83962C6.66473 7.96124 6.74708 8.07172 6.85087 8.16473L11.1951 12.0655L6.85087 15.9662C6.74721 16.0593 6.66499 16.1698 6.60889 16.2914C6.55279 16.413 6.52391 16.5434 6.52391 16.675C6.52391 16.8066 6.55279 16.937 6.60889 17.0586C6.66499 17.1802 6.74721 17.2907 6.85087 17.3838C6.95453 17.4768 7.0776 17.5507 7.21304 17.601C7.34847 17.6514 7.49364 17.6773 7.64023 17.6773C7.78683 17.6773 7.93199 17.6514 8.06743 17.601C8.20287 17.5507 8.32593 17.4768 8.42959 17.3838L13.5688 12.7692C13.6726 12.6762 13.755 12.5657 13.8112 12.4441C13.8673 12.3225 13.8963 12.1921 13.8963 12.0605C13.8963 11.9288 13.8673 11.7984 13.8112 11.6768C13.755 11.5552 13.6726 11.4447 13.5688 11.3517L8.44079 6.74719C8.00412 6.3551 7.28754 6.3551 6.85087 6.74719Z" fill="#003770"/>
<path d="M14.2298 6.74455C14.126 6.83756 14.0436 6.94804 13.9875 7.06966C13.9313 7.19128 13.9023 7.32165 13.9023 7.45332C13.9023 7.58499 13.9313 7.71537 13.9875 7.83699C14.0436 7.95861 14.126 8.06908 14.2298 8.16209L18.5741 12.0628L14.2298 15.9636C14.0204 16.1516 13.9028 16.4065 13.9028 16.6724C13.9028 16.9382 14.0204 17.1932 14.2298 17.3811C14.4391 17.5691 14.7231 17.6747 15.0191 17.6747C15.3152 17.6747 15.5991 17.5691 15.8085 17.3811L20.9477 12.7666C21.0515 12.6736 21.1339 12.5631 21.1901 12.4415C21.2462 12.3199 21.2752 12.1895 21.2752 12.0578C21.2752 11.9261 21.2462 11.7958 21.1901 11.6741C21.1339 11.5525 21.0515 11.4421 20.9477 11.349L15.8085 6.7345C15.383 6.35247 14.6664 6.35247 14.2298 6.74455Z" fill="#003770"/>
</svg>
