<svg width="24" height="25" viewBox="0 0 24 25" fill="none" xmlns="http://www.w3.org/2000/svg">
<path d="M13.3633 2.5H6.87C5.97717 2.5 5.24667 3.2305 5.24667 4.12333V17.11C5.24667 18.0028 5.97717 18.7333 6.87 18.7333H16.61C17.5028 18.7333 18.2333 18.0028 18.2333 17.11V7.37L13.3633 2.5ZM16.61 17.11H6.87V4.12333H12.5517V8.18167H16.61V17.11ZM3.62333 5.74667V20.3567H16.61V21.98H3.62333C2.7305 21.98 2 21.2495 2 20.3567V5.74667H3.62333ZM8.49333 10.6167V12.24H14.9867V10.6167H8.49333ZM8.49333 13.8633V15.4867H12.5517V13.8633H8.49333Z" fill="#0073CF"/>
</svg>
