<svg width="24" height="24" viewBox="0 0 24 24" fill="none" xmlns="http://www.w3.org/2000/svg">
<path d="M5 21.9995C4.45 21.9995 3.979 21.8038 3.587 21.4125C3.19567 21.0205 3 20.5495 3 19.9995V15.4495L5.75 12.3245L7.175 13.7495L5.175 15.9995H18.825L16.875 13.7995L18.3 12.3745L21 15.4495V19.9995C21 20.5495 20.8043 21.0205 20.413 21.4125C20.021 21.8038 19.55 21.9995 19 21.9995H5ZM5 19.9995H19V17.9995H5V19.9995ZM10.625 14.3745L7.1 10.8495C6.71667 10.4661 6.52933 9.99548 6.538 9.43748C6.546 8.87881 6.74167 8.40781 7.125 8.02448L12.025 3.12448C12.4083 2.74115 12.8833 2.54115 13.45 2.52448C14.0167 2.50781 14.4917 2.69115 14.875 3.07448L18.4 6.59948C18.7833 6.98281 18.9833 7.44948 19 7.99948C19.0167 8.54948 18.8333 9.01615 18.45 9.39948L13.45 14.3995C13.0667 14.7828 12.596 14.9701 12.038 14.9615C11.4793 14.9535 11.0083 14.7578 10.625 14.3745ZM17 8.02448L13.475 4.49948L8.525 9.44948L12.05 12.9745L17 8.02448Z" fill="#0073CF"/>
</svg>
