<svg width="102" height="62" viewBox="0 0 102 62" fill="none" xmlns="http://www.w3.org/2000/svg">
<g clipPath="url(#clip0_6029_8421)">
<path d="M65.5494 10.9609C65.2394 11.6609 64.9294 12.2809 64.6694 12.7309C64.4994 13.0309 64.0494 12.9109 64.0494 12.5709C64.0494 12.5709 63.9894 12.2309 63.9194 11.8209L68.1894 38.2909L49.8594 40.9409L50.1294 42.6009L70.1794 39.7109" fill="#003770"/>
<path d="M16.79 53.2205C17.5 52.0805 17.86 50.3605 17.86 48.0505C17.86 45.7405 17.5 43.9905 16.79 42.8605C16.08 41.7305 14.92 41.1705 13.33 41.1705C11.74 41.1705 10.58 41.7405 9.87 42.8605C9.16 43.9905 8.8 45.7205 8.8 48.0505C8.8 50.3805 9.16 52.0805 9.87 53.2205C10.58 54.3605 11.74 54.9305 13.33 54.9305C14.92 54.9305 16.08 54.3605 16.79 53.2205ZM3.39 57.7105C1.13 55.4405 0 52.2205 0 48.0505C0 43.8805 1.13 40.6605 3.39 38.3905C5.65 36.1205 8.96 34.9805 13.33 34.9805C17.7 34.9805 21.01 36.1205 23.27 38.3905C25.53 40.6605 26.66 43.8805 26.66 48.0505C26.66 52.2205 25.53 55.4505 23.27 57.7105C21.01 59.9805 17.7 61.1205 13.33 61.1205C8.96 61.1205 5.65 59.9805 3.39 57.7105Z" fill="#003770"/>
<path d="M30.2795 60.5595C29.9395 60.1995 29.7695 59.6495 29.7695 58.9095V37.1795C29.7695 36.4395 29.9395 35.8995 30.2795 35.5495C30.6195 35.1995 31.2195 35.0295 32.0795 35.0295H35.6795C36.2095 35.0295 36.6195 35.0995 36.9095 35.2395C37.1995 35.3795 37.4795 35.6595 37.7595 36.0595L44.6095 46.3695V37.2095C44.6095 36.4695 44.7795 35.9195 45.1195 35.5595C45.4595 35.1995 46.0495 35.0195 46.8795 35.0195H51.3895C52.2495 35.0195 52.8495 35.1895 53.1895 35.5395C53.5295 35.8795 53.6995 36.4395 53.6995 37.2095V58.9395C53.6995 59.6795 53.5295 60.2195 53.1895 60.5695C52.8495 60.9095 52.2495 61.0895 51.3895 61.0895H47.7895C47.2595 61.0895 46.8495 61.0195 46.5595 60.8795C46.2695 60.7395 45.9895 60.4595 45.7095 60.0595L38.8595 49.7495V58.9495C38.8595 59.6895 38.6895 60.2295 38.3495 60.5795C38.0095 60.9195 37.4095 61.0995 36.5495 61.0995H32.0395C31.2095 61.0995 30.6195 60.9195 30.2795 60.5595Z" fill="#003770"/>
<path d="M67.8991 46.8091C68.7291 46.8091 69.3791 46.5891 69.8591 46.1591C70.3391 45.7291 70.5791 45.0691 70.5791 44.2091C70.5791 43.3491 70.3391 42.6491 69.8591 42.2191C69.3791 41.7791 68.7291 41.5691 67.8991 41.5691H65.2591V46.8191M57.6391 60.5691C57.2891 60.2091 57.1191 59.6591 57.1191 58.9191V37.2291C57.1191 36.4891 57.2991 35.9391 57.6391 35.5791C57.9891 35.2191 58.5891 35.0391 59.4391 35.0391H68.7091C72.5891 35.0391 75.4191 35.7991 77.1891 37.3191C78.9591 38.8391 79.8491 41.1291 79.8491 44.1991C79.8491 47.2691 78.9591 49.5491 77.1891 51.0591C75.4191 52.5691 72.5991 53.3191 68.7491 53.3191H66.4191V58.9191C66.4191 59.6591 66.2391 60.2091 65.8991 60.5691C65.5491 60.9291 64.9391 61.1091 64.0591 61.1091H59.4391C58.5891 61.1091 57.9791 60.9291 57.6391 60.5691Z" fill="#003770"/>
<path d="M83.7309 60.5613C83.3909 60.2013 83.2109 59.6513 83.2109 58.9113V37.2213C83.2109 36.4813 83.3809 35.9313 83.7309 35.5713C84.0809 35.2113 84.6709 35.0312 85.5109 35.0312H99.6209C100.441 35.0312 100.991 35.2013 101.291 35.5513C101.581 35.9013 101.731 36.4513 101.731 37.2213V39.3713C101.731 40.1413 101.581 40.6913 101.291 41.0413C101.001 41.3813 100.441 41.5613 99.6209 41.5613H92.4109V44.8613H97.5809C98.4009 44.8613 98.9509 45.0313 99.2509 45.3813C99.5409 45.7213 99.6909 46.2812 99.6909 47.0513V49.1213C99.6909 49.8913 99.5409 50.4413 99.2509 50.7913C98.9609 51.1313 98.4009 51.3113 97.5809 51.3113H92.4109V54.6012H99.5809C100.401 54.6012 100.951 54.7712 101.251 55.1213C101.541 55.4613 101.691 56.0213 101.691 56.7913V58.9412C101.691 59.7113 101.541 60.2613 101.251 60.6113C100.961 60.9613 100.401 61.1313 99.5809 61.1313H85.5109C84.6709 61.1313 84.0709 60.9513 83.7309 60.5913" fill="#003770"/>
<path d="M63.9408 11.8206C63.8908 11.4906 63.8208 11.1106 63.7708 10.8106C63.6608 10.1306 65.3408 7.83062 65.3608 4.99062C65.3708 3.11062 64.2808 1.39062 63.5508 0.700625C63.3408 0.500625 63.4908 0.140625 63.7808 0.140625H36.3008V0.190625C36.3308 0.220625 36.3608 0.250625 36.3808 0.290625C36.5808 0.670625 36.0808 4.96062 36.8708 11.1206C37.4208 15.4006 39.1208 23.7506 39.1208 23.7506C39.3108 24.7806 40.3408 25.4406 41.3808 25.1606C42.3008 24.9006 42.8208 23.9106 42.6408 22.9706L41.4808 16.6706L44.0908 15.9006L45.9008 25.6806C46.0908 26.7106 47.1208 27.3706 48.1608 27.0906C49.0808 26.8306 49.6008 25.8406 49.4308 24.9006L47.5808 14.8806L50.1908 14.1106L52.7508 27.9806C52.9408 29.0106 53.9708 29.6706 55.0108 29.3906C55.9308 29.1306 56.4508 28.1406 56.2708 27.2006L53.6608 13.0906L56.2708 12.3206L58.6608 25.2506C58.8508 26.2806 59.8808 26.9406 60.9208 26.6606C61.8408 26.4106 62.3608 25.4106 62.1808 24.4706L59.1208 7.90063C59.1208 7.90063 59.1208 7.87063 59.1408 7.87063L60.6308 7.59063C60.6308 7.59063 60.6608 7.59063 60.6608 7.61063L63.9008 25.1206C64.1608 26.5306 63.2308 27.8806 61.8208 28.1406V28.1206C61.7408 28.1406 61.6708 28.1706 61.6008 28.1806L60.4908 28.3906C59.2608 28.6206 58.0708 27.9306 57.6208 26.8206C57.6108 26.7906 57.5608 26.8006 57.5708 26.8306L57.7608 27.8706C58.0208 29.2906 57.0808 30.6606 55.6608 30.9206L54.6008 31.1206C53.1808 31.3806 51.8108 30.4406 51.5508 29.0206L51.0108 26.1206C51.0108 26.1206 50.9608 26.0906 50.9608 26.1206C50.9408 27.3206 50.0708 28.3906 48.8408 28.6106L47.7508 28.8106C47.1708 28.9206 46.6008 28.8206 46.1108 28.5806L48.1508 41.2006L68.2208 38.3006" fill="#D9ECF9"/>
<path d="M47.7399 28.8011L48.8199 28.6011C50.0499 28.3711 50.9199 27.3111 50.9399 26.1111C50.9399 26.0711 50.9899 26.0711 50.9899 26.1111L51.5299 29.0111C51.7899 30.4311 53.1599 31.3711 54.5799 31.1111L55.6399 30.9211C57.0599 30.6611 57.9999 29.2911 57.7399 27.8711L57.5499 26.8311C57.5499 26.8311 57.5899 26.7811 57.5999 26.8211C58.0499 27.9411 59.2399 28.6211 60.4699 28.3911L61.5799 28.1811C61.6499 28.1711 61.7199 28.1411 61.7899 28.1211V28.1411C63.2099 27.8811 64.1399 26.5311 63.8799 25.1211L60.6399 7.61109C60.6399 7.61109 60.6199 7.58109 60.6099 7.59109L59.1199 7.87109C59.1199 7.87109 59.0899 7.89109 59.0999 7.90109L62.1599 24.4711C62.3399 25.4111 61.8199 26.4011 60.8999 26.6611C59.8699 26.9511 58.8299 26.2811 58.6399 25.2511L56.2499 12.3211L53.6399 13.0911L56.2499 27.2011C56.4299 28.1411 55.9099 29.1311 54.9899 29.3911C53.9599 29.6811 52.9199 29.0111 52.7299 27.9811L50.1699 14.1111L47.5599 14.8811L49.4099 24.9011C49.5799 25.8411 49.0699 26.8311 48.1499 27.0911C47.1199 27.3711 46.0799 26.7111 45.8899 25.6811L44.0799 15.9011L41.4699 16.6711L42.6299 22.9711C42.7999 23.9111 42.2899 24.9011 41.3699 25.1611C40.3399 25.4511 39.2999 24.7811 39.1099 23.7511C39.1099 23.7511 37.4199 15.4011 36.8599 11.1211C36.0699 4.97109 36.5699 0.671089 36.3699 0.291089C36.3499 0.261089 36.3199 0.221089 36.2899 0.191089C35.9699 -0.0889109 35.0399 -0.0689109 34.8399 0.261089C34.6099 0.631089 34.5599 6.44109 35.2099 11.1711C35.7999 15.4211 37.7099 24.8511 37.7099 24.8511C37.9699 26.2611 39.3199 27.1911 40.7299 26.9311L40.9499 26.8911L41.8399 26.7211L42.0599 26.6811C43.2899 26.4511 44.1599 25.3911 44.1799 24.1911C44.1799 24.1511 44.2299 24.1511 44.2299 24.1911L44.6999 26.7211C44.8599 27.5611 45.3999 28.2311 46.1099 28.5911C46.5999 28.8311 47.1699 28.9311 47.7499 28.8211" fill="#003770"/>
<path d="M66.7796 3.08062C66.7796 3.08062 66.4096 1.25063 65.1496 0.220625C65.0896 0.170625 65.0096 0.140625 64.9296 0.140625H63.7796C63.4796 0.140625 63.3396 0.500625 63.5496 0.700625C64.2796 1.39062 65.3696 3.11062 65.3596 4.99062C65.3396 7.82062 63.6596 10.1206 63.7696 10.8106C63.8196 11.1106 63.8796 11.4906 63.9396 11.8206C64.0096 12.2406 64.0696 12.5706 64.0696 12.5706C64.0696 12.9106 64.5196 13.0306 64.6896 12.7306C64.9496 12.2706 65.2596 11.6606 65.5696 10.9606C66.5596 8.70062 67.5496 5.45062 66.7896 3.09062" fill="#003770"/>
</g>
<defs>
<clipPath id="clip0_6029_8421">
<rect width="101.73" height="61.12" fill="white"/>
</clipPath>
</defs>
</svg>
